<?xml version="1.0" encoding="utf-8"?>
<!-- Generator: Adobe Illustrator 28.0.0, SVG Export Plug-In . SVG Version: 6.00 Build 0)  -->
<svg version="1.1" id="Layer_1" xmlns="http://www.w3.org/2000/svg" xmlns:xlink="http://www.w3.org/1999/xlink" x="0px" y="0px"
	 viewBox="0 0 16 16" style="enable-background:new 0 0 16 16;" xml:space="preserve">
<style type="text/css">
	.st0{fill:#FFFFFF;stroke:#000000;stroke-width:0.1;stroke-miterlimit:10;}
	.st1{fill:none;stroke:#000000;stroke-width:0.1;stroke-miterlimit:10;}
	.st2{opacity:0.93;fill:#FFFFFF;stroke:#000000;stroke-width:0.25;stroke-miterlimit:10;}
</style>
<g>
	<ellipse class="st0" cx="7.36" cy="8.36" rx="0.53" ry="0.5"/>
	<path class="st0" d="M9.77,7.05c0,0.35-0.3,0.63-0.66,0.63H8.76L8.27,8.12l0-0.48C8.01,7.56,7.82,7.33,7.82,7.05
		c0-0.35,0.3-0.63,0.66-0.63H9.1C9.47,6.42,9.77,6.7,9.77,7.05z"/>
	<path class="st1" d="M7.16,8.83C6.79,8.9,6.5,9.22,6.42,9.63"/>
	<path class="st1" d="M8.18,10.17c0.03-0.1,0.05-0.21,0.05-0.32c0-0.5-0.31-0.91-0.72-1.01"/>
	<path class="st2" d="M8.31,7.6"/>
	<ellipse class="st1" cx="8.06" cy="7.79" rx="2.5" ry="2.42"/>
	<g>
		<line class="st1" x1="8.16" y1="6.82" x2="9.43" y2="6.82"/>
		<line class="st1" x1="8.16" y1="7.36" x2="9.43" y2="7.36"/>
		<line class="st1" x1="8.16" y1="7.09" x2="9.43" y2="7.09"/>
	</g>
</g>
</svg>
