<?xml version="1.0" encoding="utf-8"?>
<!-- Generator: Adobe Illustrator 28.0.0, SVG Export Plug-In . SVG Version: 6.00 Build 0)  -->
<svg version="1.1" id="Layer_1" xmlns="http://www.w3.org/2000/svg" xmlns:xlink="http://www.w3.org/1999/xlink" x="0px" y="0px"
	 viewBox="0 0 16 16" style="enable-background:new 0 0 16 16;" xml:space="preserve">
<style type="text/css">
	.st0{fill:#FFFFFF;stroke:#000000;stroke-width:0.1;stroke-miterlimit:10;}
	.st1{fill:none;stroke:#000000;stroke-width:0.1;stroke-miterlimit:10;}
</style>
<g>
	<path class="st0" d="M8.72,7.73c0,0.12-0.1,0.2-0.21,0.2c-0.11,0-0.21-0.09-0.21-0.2c0-0.12,0.1-0.2,0.21-0.2
		C8.63,7.52,8.72,7.61,8.72,7.73z"/>
	<path class="st0" d="M6.17,8.99l1.38,0.01L6.17,8.99C6.15,8.99,6.13,8.99,6.11,8.98C6.13,8.99,6.15,8.99,6.17,8.99z"/>
	<path class="st0" d="M9.75,6.94v0.39H9.29V6.84c0-0.12-0.15-0.22-0.33-0.22L7.57,6.61h1.85C9.61,6.61,9.75,6.76,9.75,6.94z"/>
	<path class="st0" d="M9.75,8.13v0.53c0,0.18-0.15,0.33-0.33,0.33H9.01c0.15-0.01,0.27-0.1,0.27-0.2l0.01-0.65H9.75z"/>
	<path class="st1" d="M8.72,7.73c0,0.12-0.1,0.2-0.21,0.2c-0.11,0-0.21-0.09-0.21-0.2c0-0.12,0.1-0.2,0.21-0.2
		C8.63,7.52,8.72,7.61,8.72,7.73z"/>
	<path class="st1" d="M8.01,7.73c0,0.23,0.18,0.41,0.41,0.41h0.85L9.27,8.79c0,0.1-0.11,0.19-0.27,0.2H7.56L6.17,8.99H6.14
		c-0.01,0-0.02,0-0.04-0.01C5.95,8.96,5.84,8.83,5.84,8.67V6.94c0-0.02,0-0.04,0.01-0.07c0.02-0.15,0.15-0.26,0.32-0.26h1.4
		l1.38,0.01c0.18,0,0.33,0.09,0.33,0.22v0.49H8.43C8.2,7.33,8.01,7.51,8.01,7.73z"/>
	<path class="st1" d="M6.11,8.98C5.95,8.96,5.84,8.87,5.84,8.77v-0.1C5.84,8.83,5.95,8.96,6.11,8.98z"/>
	<path class="st1" d="M7.57,6.61h-1.4c-0.16,0-0.29,0.11-0.32,0.26V6.82C5.86,6.7,6,6.61,6.19,6.61L7.57,6.61z"/>
	<path class="st1" d="M7.56,8.99h1.45C8.99,9,8.96,9,8.94,9L7.56,8.99z"/>
	<path class="st1" d="M8.72,7.73c0,0.12-0.1,0.2-0.21,0.2c-0.11,0-0.21-0.09-0.21-0.2c0-0.12,0.1-0.2,0.21-0.2
		C8.63,7.52,8.72,7.61,8.72,7.73z"/>
	<path class="st1" d="M8.43,7.33c-0.23,0-0.41,0.18-0.41,0.4c0,0.23,0.18,0.41,0.41,0.41h1.33V7.33H8.43z M8.51,7.93
		c-0.11,0-0.21-0.09-0.21-0.2c0-0.12,0.1-0.2,0.21-0.2c0.12,0,0.21,0.09,0.21,0.2C8.72,7.84,8.63,7.93,8.51,7.93z"/>
	<path class="st1" d="M8.72,7.73c0,0.12-0.1,0.2-0.21,0.2c-0.11,0-0.21-0.09-0.21-0.2c0-0.12,0.1-0.2,0.21-0.2
		C8.63,7.52,8.72,7.61,8.72,7.73z"/>
	<path class="st1" d="M8.72,7.73c0,0.12-0.1,0.2-0.21,0.2c-0.11,0-0.21-0.09-0.21-0.2c0-0.12,0.1-0.2,0.21-0.2
		C8.63,7.52,8.72,7.61,8.72,7.73z"/>
	<ellipse class="st1" cx="7.61" cy="6.09" rx="0.53" ry="0.53"/>
	<ellipse class="st1" cx="8.66" cy="5.06" rx="0.51" ry="0.51"/>
	<line class="st1" x1="7.87" y1="4.32" x2="7.87" y2="5.39"/>
	<line class="st1" x1="7.56" y1="4.63" x2="7.56" y2="5.39"/>
</g>
</svg>
