<?xml version="1.0" encoding="utf-8"?>
<!-- Generator: Adobe Illustrator 28.0.0, SVG Export Plug-In . SVG Version: 6.00 Build 0)  -->
<svg version="1.1" id="Layer_1" xmlns="http://www.w3.org/2000/svg" xmlns:xlink="http://www.w3.org/1999/xlink" x="0px" y="0px"
	 viewBox="0 0 16 16" style="enable-background:new 0 0 16 16;" xml:space="preserve">
<style type="text/css">
	.st0{fill:#FFFFFF;stroke:#000000;stroke-width:0.1;stroke-miterlimit:10;}
</style>
<g>
	<path class="st0" d="M9.8,6.48H9.9c0.13,0,0.24,0.11,0.24,0.24v2.23c0,0.13-0.11,0.24-0.24,0.24H8.3C8.03,9.26,8.07,9.36,8.07,9.22
		c0,0.13,0.05,0.04-0.24-0.04H6.21c-0.13,0-0.24-0.11-0.24-0.24V6.72c0-0.13,0.11-0.24,0.24-0.24h0.11"/>
	<path class="st0" d="M8.06,6.44v2.48c0,0.01-0.01,0.03-0.03,0.03L7.19,8.83L6.35,8.95c-0.01,0-0.03-0.01-0.03-0.03V6.44
		c0-0.01,0.01-0.03,0.03-0.03l0.84-0.08l0.84,0.08C8.04,6.41,8.06,6.43,8.06,6.44z"/>
	<path class="st0" d="M9.8,6.41v2.51c0,0.01-0.01,0.03-0.03,0.03L8.93,8.86L8.08,8.95c-0.01,0-0.03-0.01-0.03-0.03V8.88V6.41
		c0-0.01,0.01-0.03,0.03-0.03l0.84-0.11l0.84,0.11C9.78,6.39,9.8,6.4,9.8,6.41z"/>
</g>
</svg>
