<svg version="1.1" id="Layer_1" xmlns="http://www.w3.org/2000/svg" xmlns:xlink="http://www.w3.org/1999/xlink" x="0px" y="0px"
	 width="100%" viewBox="0 0 1008 425" enable-background="new 0 0 1008 425" xml:space="preserve">
<path fill="#FFFFFF" opacity="0.500000" stroke="none"
	d="
M1009.000000,250.000000
	C1009.000000,308.642944 1009.000000,367.285919 1009.000000,426.000000
	C719.307495,426.000000 429.614990,426.000000 139.655914,425.636292
	C139.566910,424.998413 139.886932,424.731689 139.901810,424.448883
	C141.283157,398.195557 142.682144,371.943054 143.985626,345.685760
	C144.786102,329.561066 145.395920,313.426971 146.182831,297.301544
	C146.414551,292.553192 146.958908,287.820068 147.376007,282.890625 
	C159.356323,282.890625 170.987885,282.890625 182.831650,282.890625
	C183.591965,275.862000 184.329697,269.042145 185.109482,261.833496
	C202.755966,261.833496 219.993515,261.833496 237.573593,261.833496 
	C237.573593,251.419403 237.657181,241.443726 237.483521,231.472519
	C237.457443,229.975754 236.457718,228.332352 235.517807,227.041092
	C228.195084,216.980972 220.794373,206.977386 213.381485,196.983200 
	C208.598175,190.534256 203.753754,184.130646 198.455841,177.065445 
	C196.040100,184.815872 193.926651,191.596451 191.813202,198.377014 
	C191.323746,198.227493 190.834274,198.077988 190.344818,197.928482 
	C190.979813,190.228592 191.233200,182.474136 192.325272,174.839630 
	C195.013443,156.047043 194.434570,137.384613 190.612289,118.853683 
	C184.484985,89.147690 172.156845,62.049896 154.290527,37.679150
	C144.931030,24.912218 134.142929,13.192601 124.000000,1.000002
	C418.889038,1.000000 713.778076,1.000000 1009.000000,1.000000
	C1009.000000,80.358856 1009.000000,159.718170 1008.647583,239.488937
	C1006.197327,233.595001 1000.893311,230.846191 995.396301,228.363983
	C991.054382,226.403381 986.532104,224.805298 982.320435,222.604935
	C978.971985,220.855515 976.786621,217.482056 978.229248,213.901321
	C979.311035,211.216385 981.925171,208.370667 984.553040,207.291748
	C987.562134,206.056290 991.407837,206.197647 994.766968,206.651764
	C998.525940,207.159943 1002.146912,208.689285 1006.083008,209.849442
	C1006.083008,208.281174 1005.852417,206.909378 1006.124084,205.645538
	C1007.135376,200.941238 1004.745239,198.901230 1000.532104,198.589737
	C995.577820,198.223465 990.564636,197.740631 985.637695,198.112625
	C976.112610,198.831833 968.966125,205.310623 967.597290,213.736053
	C966.275208,221.873077 969.927673,227.571732 979.502930,232.029297
	C983.529236,233.903641 987.762695,235.350067 991.719788,237.351242
	C995.836731,239.433273 999.473267,242.265137 998.604736,247.649551 
	C997.848206,252.339951 993.883728,255.389786 987.710999,254.822586 
	C980.810547,254.188522 974.023499,252.321487 967.288391,251.010757 
	C966.337585,260.924164 967.192871,261.967224 978.351685,263.141296 
	C979.342651,263.245544 980.318481,263.571442 981.307556,263.603699 
	C990.721924,263.910797 1003.363403,262.735138 1009.000000,250.000000 
M483.242096,89.500076 
	C483.242096,71.752235 483.242096,54.004402 483.242096,35.994217 
	C480.485016,35.994217 478.303955,36.247837 476.204651,35.941486 
	C471.816833,35.301193 469.692535,36.916336 467.849701,41.157600 
	C458.226379,63.305676 448.148560,85.256264 438.285919,107.148941 
	C438.198456,106.968689 437.967926,106.534676 437.772766,106.085281 
	C428.135895,83.893211 418.542572,61.681957 408.777008,39.546650 
	C408.123932,38.066273 406.275787,36.340611 404.798523,36.148045 
	C401.071442,35.662220 397.238647,35.987099 393.257080,35.987099 
	C393.257080,65.486443 393.257080,94.553139 393.257080,123.714844 
	C396.705933,123.714844 399.930695,123.714844 403.188202,123.714844 
	C403.188202,99.166824 403.188202,74.911385 403.188202,49.793255 
	C403.841156,51.565617 404.155975,52.590118 404.586365,53.563515 
	C414.640106,76.301361 424.674194,99.048141 434.868652,121.722809 
	C435.359833,122.815346 437.307129,123.883377 438.533722,123.836906 
	C439.747040,123.790962 441.451599,122.577293 442.000458,121.427139 
	C445.473114,114.150078 448.702332,106.756264 451.978577,99.386185 
	C458.818481,83.999512 465.637726,68.603668 472.465454,53.211586 
	C472.733368,53.266300 473.001251,53.321018 473.269165,53.375732 
	C473.269165,76.890144 473.269165,100.404564 473.269165,123.720169 
	C476.821136,123.720169 479.928467,123.720169 483.242126,123.720169 
	C483.242126,112.455833 483.242126,101.477966 483.242096,89.500076 
M897.994019,209.524048 
	C897.994019,236.589020 897.994019,263.653992 897.994019,290.689209 
	C901.732910,290.689209 904.943726,290.689209 908.690735,290.689209 
	C908.690735,278.400604 908.690735,266.429291 908.690735,253.731705 
	C920.308228,269.484406 943.946594,265.286530 952.023315,249.083832 
	C956.286743,240.531113 956.453979,231.527176 955.951355,222.412857 
	C955.327271,211.097046 948.336975,201.822952 938.569519,198.778122 
	C927.889099,195.448700 917.341309,198.626862 910.422302,207.256851 
	C909.993225,207.792084 909.549927,208.315964 908.356995,209.761597 
	C908.356995,205.475449 908.356995,202.366074 908.356995,199.296280 
	C904.684692,199.296280 901.448242,199.296280 897.994019,199.296280 
	C897.994019,202.584106 897.994019,205.559616 897.994019,209.524048 
M590.536865,263.017578 
	C597.595032,262.670685 604.815674,263.139252 611.670776,261.773285 
	C620.513489,260.011322 627.040894,254.346695 628.797852,245.135696 
	C630.574402,235.821823 627.827637,227.616867 619.765503,221.963974 
	C615.465271,218.948807 610.838745,216.390533 606.302673,213.722610 
	C601.623169,210.970337 596.728455,208.558594 592.196411,205.588135 
	C587.344482,202.408005 585.886475,197.361908 587.161682,191.997040 
	C588.318420,187.130737 592.155090,184.282181 596.923706,183.047028 
	C606.748779,180.502182 616.163269,181.908997 625.594055,186.946686 
	C625.594055,184.460983 625.309265,182.470428 625.649841,180.593338 
	C626.515442,175.822586 624.106079,173.748367 619.864319,173.545578 
	C612.619019,173.199203 605.296448,172.515198 598.117981,173.179260 
	C587.270020,174.182755 578.037842,182.293976 576.083923,191.239899 
	C573.950378,201.008163 578.181885,209.581284 588.661560,216.082672 
	C592.868896,218.692795 597.403259,220.769745 601.704468,223.236328 
	C605.565369,225.450424 609.729187,227.405228 612.967712,230.346130 
	C615.335876,232.496582 617.450745,235.917770 617.881470,239.021881 
	C619.124512,247.980850 613.291443,253.517654 603.604004,254.032867 
	C593.754761,254.556656 584.645264,252.480576 576.225647,247.005615 
	C575.615784,260.845184 573.942444,259.248352 586.336304,262.120361 
	C587.452087,262.378937 588.550476,262.712463 590.536865,263.017578 
M717.910400,262.000061 
	C720.849854,262.000061 723.789368,262.000061 726.937683,262.000061 
	C726.937683,247.488007 727.375244,233.498825 726.807190,219.550583 
	C726.300415,207.105377 720.554443,199.107086 711.244385,198.352844 
	C704.126892,197.776230 696.645081,198.611267 689.666077,200.260590 
	C682.387085,201.980850 681.429443,205.298996 683.709473,212.652084 
	C687.348816,210.935822 690.898010,208.769089 694.746216,207.534302 
	C709.818176,202.698120 717.295959,210.266891 715.963867,221.917450 
	C714.203491,222.257828 712.309998,222.671432 710.399902,222.984573 
	C704.198730,224.001236 697.890381,224.569778 691.808411,226.064133 
	C680.532898,228.834549 674.692871,238.764542 677.169983,250.048325 
	C679.251770,259.531403 689.079773,264.967896 700.100525,263.458130 
	C706.807678,262.539307 711.548279,259.008728 715.810059,253.558746 
	C716.288940,256.803192 716.659729,259.314911 717.910400,262.000061 
M659.537537,59.778416 
	C655.630371,60.368374 651.526855,60.387611 647.851685,61.651848 
	C635.212158,65.999779 629.883118,75.955627 628.348511,88.518402 
	C626.935974,100.081612 630.728638,114.282089 641.762329,121.202492 
	C651.806946,127.502602 667.196228,126.921883 677.509583,120.356331 
	C692.683105,110.696777 693.341614,83.325569 684.616760,70.958466 
	C678.694641,62.564114 670.239563,59.752453 659.537537,59.778416 
M483.614014,211.085251 
	C474.282379,193.611588 447.115570,195.261703 436.889832,204.369446 
	C427.888306,212.386765 425.423096,222.514679 425.976654,233.908859 
	C426.566772,246.055084 431.402191,255.956787 442.860901,260.845520 
	C454.828583,265.951385 466.870239,265.223389 477.242767,256.537781 
	C488.850281,246.818115 491.483093,227.724686 483.614014,211.085251 
M766.271240,64.638596 
	C755.768005,72.113487 752.616577,82.773079 752.981689,95.029251 
	C753.690552,118.828445 772.776672,129.665466 793.264282,124.426224 
	C818.310059,118.021362 819.913208,83.865120 808.141174,69.544113 
	C799.006531,58.431664 781.516174,56.209572 766.271240,64.638596 
M868.954163,238.959732 
	C868.346863,241.005676 867.943115,243.140472 867.095764,245.081665 
	C863.983276,252.212158 857.803772,255.708450 849.925842,254.988754 
	C843.380371,254.390823 839.713928,250.697098 837.926514,242.494308 
	C837.333435,239.772568 837.067810,236.931503 837.045044,234.141800 
	C836.950256,222.533493 837.005249,210.923981 837.005249,199.240082 
	C833.447205,199.240082 830.377686,199.240082 827.025024,199.240082 
	C827.025024,213.614822 826.542114,227.763535 827.199036,241.859131 
	C827.619446,250.880417 830.707153,259.193329 840.770813,262.260162 
	C851.954102,265.668213 861.480530,263.436707 869.036743,252.721054 
	C869.036743,256.384766 869.036743,258.977448 869.036743,261.675842 
	C872.553223,261.675842 875.763611,261.675842 878.758118,261.675842 
	C878.758118,240.619064 878.758118,219.893036 878.758118,199.304688 
	C875.324646,199.304688 872.246948,199.304688 868.987000,199.304688 
	C868.987000,212.436462 868.987000,225.247192 868.954163,238.959732 
M405.941498,261.243988 
	C405.941498,243.508453 405.941498,225.772919 405.941498,207.691864 
	C411.280243,207.691864 415.881134,207.691864 420.478394,207.691864 
	C420.478394,204.613052 420.478394,201.903137 420.478394,198.864258 
	C415.529755,198.864258 410.928040,198.864258 406.012543,198.864258 
	C406.012543,194.405853 405.724304,190.254135 406.074341,186.156952 
	C406.742126,178.339966 412.418274,174.564743 420.081818,176.494904 
	C420.953949,176.714569 421.841492,176.872971 422.864624,177.090073 
	C422.864624,173.920074 422.864624,171.142273 422.864624,168.146423 
	C421.700043,168.050491 420.735168,168.014847 419.782867,167.885971 
	C405.544952,165.958908 396.072113,174.158936 395.945007,188.550461 
	C395.914795,191.973419 395.940552,195.396866 395.940552,199.250931 
	C391.880127,199.250931 388.474579,199.250931 385.219971,199.250931 
	C385.219971,202.314865 385.219971,204.927597 385.219971,208.008545 
	C388.820374,208.008545 392.227112,208.008545 396.008606,208.008545 
	C396.008606,226.207947 396.008606,243.937485 396.008606,261.934937 
	C399.363922,261.934937 402.322571,261.934937 405.941498,261.243988 
M827.553284,69.950699 
	C829.505188,69.950699 831.457092,69.950699 833.826416,69.950699 
	C833.826416,88.127655 833.826416,105.848618 833.826416,123.638550 
	C837.448303,123.638550 840.631531,123.638550 844.219482,123.638550 
	C844.219482,105.544006 844.219482,87.824020 844.219482,69.842072 
	C849.080933,69.842072 853.529846,69.842072 858.225647,69.842072 
	C858.225647,66.823296 858.225647,64.076538 858.225647,60.899338 
	C853.402710,60.899338 848.818787,60.899338 844.009399,60.899338 
	C844.009399,56.342941 843.853149,52.206783 844.044312,48.086739 
	C844.368835,41.090305 849.571594,36.988041 856.482300,38.124325 
	C857.892700,38.356220 859.265381,38.817642 860.701660,39.185074 
	C860.701660,35.983665 860.701660,33.066746 860.701660,30.166412 
	C859.229980,30.019451 858.067078,29.945978 856.917053,29.781958 
	C844.042908,27.945745 834.400330,35.878593 833.974182,48.756783 
	C833.843750,52.697338 833.953979,56.645855 833.953979,61.078243 
	C829.974670,61.078243 826.575745,61.078243 822.985291,61.078243 
	C822.985291,63.221367 823.152161,64.886696 822.949036,66.505600 
	C822.577271,69.468086 823.918030,70.368111 827.553284,69.950699 
M724.540771,68.012062 
	C729.622498,69.138763 734.704224,70.265472 739.860107,71.408623 
	C739.860107,68.640419 739.860107,65.514862 739.860107,62.436787 
	C734.307861,60.051525 723.850647,58.971737 718.312561,60.175259 
	C708.422607,62.324516 702.181396,68.442734 701.147583,77.001854 
	C700.309570,83.940048 704.853577,90.121910 714.135132,94.433250 
	C718.443665,96.434586 722.998413,97.947723 727.174622,100.181290 
	C732.545837,103.053986 734.721313,108.811852 731.367615,112.488899 
	C729.195801,114.870193 725.274780,116.309837 721.928284,116.832924 
	C714.463135,117.999809 707.664551,115.270683 701.040283,111.030212 
	C701.040283,113.214455 701.269714,114.881950 700.997437,116.463043 
	C700.167725,121.281586 702.352539,123.701927 706.947449,124.011581 
	C713.487488,124.452316 720.131287,125.466698 726.571167,124.767120 
	C735.440552,123.803650 742.289795,116.843727 743.008484,109.831505 
	C743.925293,100.885574 740.421265,95.427902 730.824524,91.055359 
	C726.335144,89.009918 721.728760,87.217125 717.272034,85.105820 
	C713.268372,83.209114 711.015137,79.971863 712.085022,75.456490 
	C713.510681,69.439293 718.689453,68.751457 724.540771,68.012062 
M669.240662,257.552368 
	C669.240662,256.274353 669.240662,254.996323 669.240662,253.331009 
	C667.357361,253.967316 666.031372,254.594238 664.636902,254.854584 
	C659.452637,255.822479 654.379944,253.361649 654.252319,248.921432 
	C653.862976,235.373810 654.111084,221.807861 654.111084,207.817841 
	C659.130554,207.817841 664.043030,207.817841 668.938782,207.817841 
	C668.938782,204.636780 668.938782,201.900604 668.938782,198.805725 
	C663.666016,198.805725 658.713379,198.805725 653.398010,198.805725 
	C653.398010,192.675018 653.398010,186.909363 653.398010,180.704269 
	C651.389709,181.208160 649.855164,181.725220 648.278503,181.963196 
	C644.103027,182.593491 642.509399,184.796448 643.040161,189.070038 
	C643.438416,192.276382 643.118774,195.571854 643.118774,199.211456 
	C639.182556,199.211456 635.928955,199.211456 632.789124,199.211456 
	C632.789124,202.348343 632.789124,205.056580 632.789124,208.188782 
	C636.453186,208.188782 639.703003,208.188782 642.817139,208.188782 
	C642.970154,208.779175 643.044800,208.933426 643.045227,209.087860 
	C643.076416,220.918610 643.052002,232.749725 643.140259,244.580032 
	C643.250000,259.301880 651.302856,265.834381 665.651855,263.043030 
	C668.399658,262.508514 669.708069,261.175842 669.240662,257.552368 
M871.057312,84.504166 
	C871.060608,92.322830 870.871216,100.147415 871.111694,107.958778 
	C871.483337,120.029282 877.218140,125.670296 888.467041,125.467865 
	C896.699768,125.319725 897.337036,124.653076 897.039856,116.440430 
	C897.029236,116.145454 896.821960,115.857597 896.696350,115.541176 
	C896.215698,115.686615 895.734436,115.814995 895.264771,115.976883 
	C887.465637,118.665260 882.351257,116.365150 881.869080,108.380157 
	C881.103577,95.704361 881.664917,82.948433 881.664917,69.742081 
	C886.822266,69.742081 891.893311,69.742081 896.897644,69.742081 
	C896.897644,66.642593 896.897644,64.030670 896.897644,60.938030 
	C891.648193,60.938030 886.578796,60.938030 881.154663,60.938030 
	C881.154663,54.696327 881.154663,48.931267 881.154663,42.717201 
	C879.462097,43.188419 878.261841,43.683327 877.018921,43.840038 
	C872.299133,44.435123 870.247681,46.764252 870.974121,51.716583 
	C871.415527,54.725502 871.055542,57.851982 871.055542,61.287987 
	C867.057495,61.287987 863.800781,61.287987 860.520447,61.287987 
	C860.520447,64.266426 860.520447,66.859535 860.520447,70.017883 
	C864.107422,70.017883 867.490784,70.017883 871.057190,70.017883 
	C871.057190,74.894417 871.057190,79.200737 871.057312,84.504166 
M796.682068,261.065277 
	C800.337341,261.856720 803.986694,263.278229 807.649170,263.312836 
	C816.161255,263.393311 816.906189,262.186188 815.479980,253.564804 
	C805.401794,257.009216 800.221985,253.675232 800.093750,243.382233 
	C799.947388,231.639465 800.059875,219.893478 800.059875,207.700150 
	C805.755981,207.700150 810.831055,207.700150 815.801147,207.700150 
	C815.801147,204.624481 815.801147,202.010345 815.801147,198.952255 
	C810.534363,198.952255 805.462158,198.952255 799.884155,198.952255 
	C799.884155,192.673889 799.884155,186.835815 799.884155,180.536346 
	C796.198303,181.732513 793.138916,182.725372 789.791504,183.811691 
	C789.791504,188.980072 789.791504,193.898239 789.791504,199.284454 
	C785.993835,199.284454 782.598633,199.284454 779.384277,199.284454 
	C779.384277,202.378830 779.384277,204.977966 779.384277,208.068314 
	C783.037292,208.068314 786.427734,208.068314 789.997009,208.068314 
	C789.997009,220.868210 789.961609,233.162430 790.012512,245.456268 
	C790.036621,251.275208 791.382996,256.631012 796.682068,261.065277 
M564.618286,125.112968 
	C575.566406,124.035896 577.096252,122.239227 575.446899,112.395851 
	C561.824097,119.227440 552.295288,118.561531 544.742981,110.250153 
	C537.734680,102.537422 537.102966,87.490059 543.391357,77.727287 
	C546.935364,72.225174 552.060242,68.479393 558.461426,68.455444 
	C564.301453,68.433594 570.148315,70.249001 575.777893,71.217781 
	C575.777893,68.756905 575.777893,65.476326 575.777893,62.356125 
	C574.746582,61.956745 573.997131,61.586273 573.205444,61.371845 
	C558.286255,57.330948 542.677917,60.259045 534.309814,73.242516 
	C529.738708,80.334816 528.750000,88.225182 528.912537,96.513977 
	C529.279846,115.238808 545.398926,128.634735 564.618286,125.112968 
M756.774292,217.550171 
	C761.052368,208.097549 765.908936,205.938812 776.830200,208.703339 
	C776.830200,205.401413 776.830200,202.125381 776.830200,197.442917 
	C772.362976,198.241928 767.859680,198.114868 764.363525,199.928833 
	C760.696289,201.831528 757.994934,205.595657 754.557617,208.842728 
	C754.557617,205.602982 754.557617,202.396637 754.557617,199.319366 
	C750.776855,199.319366 747.536133,199.319366 744.410156,199.319366 
	C744.410156,220.370712 744.410156,241.079849 744.410156,261.665771 
	C747.961426,261.665771 751.189270,261.665771 754.681885,261.665771 
	C754.681885,256.173309 754.501038,251.028351 754.721375,245.900620 
	C755.118530,236.659775 755.755859,227.429260 756.774292,217.550171 
M599.274292,61.068634 
	C596.319275,61.068634 593.364258,61.068634 590.337036,61.068634 
	C590.337036,82.231316 590.337036,103.081696 590.337036,123.667717 
	C593.759216,123.667717 596.832581,123.667717 600.067566,123.667717 
	C600.067566,112.489899 599.860535,101.670021 600.142517,90.862907 
	C600.321472,84.004814 601.706787,77.292442 607.216858,72.423180 
	C611.892944,68.290863 617.333984,68.860680 623.599976,71.118263 
	C622.939819,67.054138 623.467041,61.860500 621.650269,60.840046 
	C617.643738,58.589634 612.589966,59.575863 608.563660,62.556129 
	C606.848572,63.825607 605.198608,65.300522 603.893372,66.974091 
	C602.494751,68.767426 601.536560,70.904297 599.932190,73.675240 
	C599.932190,69.061615 599.932190,65.402794 599.274292,61.068634 
M514.027771,209.326355 
	C513.722717,209.499115 513.417725,209.671860 513.112671,209.844620 
	C513.086487,209.680344 513.037720,209.516098 513.037476,209.351791 
	C513.033081,205.937424 513.034180,202.523071 513.034180,199.328369 
	C509.239990,199.328369 506.164886,199.328369 503.217407,199.328369 
	C503.217407,220.370209 503.217407,241.078491 503.217407,261.730591 
	C506.604218,261.730591 509.677551,261.730591 513.002686,261.730591 
	C513.002686,249.998047 512.956604,238.545853 513.016541,227.094223 
	C513.069153,217.048370 518.466614,208.874146 526.360413,207.602753 
	C529.361023,207.119492 532.595825,208.090103 535.905457,208.415970 
	C535.905457,206.729721 535.726379,205.049927 535.940552,203.421875 
	C536.482422,199.303360 534.873169,197.949890 530.689270,197.888306 
	C522.579529,197.768921 517.886108,202.254547 514.027771,209.326355 
M314.848267,105.499954 
	C314.848267,158.649826 314.848267,211.799698 314.848267,264.949585 
	C315.557068,265.035400 316.265839,265.121216 316.974640,265.207031 
	C317.216644,263.447479 317.669434,261.687988 317.670288,259.928314 
	C317.706665,184.672043 317.703094,109.415779 317.702118,34.159512 
	C317.702087,32.994423 317.891144,31.767603 317.584290,30.685154 
	C317.366333,29.916296 316.461456,29.342152 314.848236,27.559725 
	C314.848236,54.287575 314.848236,79.393761 314.848267,105.499954 
M513.999268,81.500160 
	C513.999268,74.735458 513.999268,67.970757 513.999268,61.284805 
	C510.345032,61.284805 507.275055,61.284805 504.282227,61.284805 
	C504.282227,82.299683 504.282227,103.026642 504.282227,123.699081 
	C507.641541,123.699081 510.709106,123.699081 513.999268,123.699081 
	C513.999268,109.764969 513.999268,96.132545 513.999268,81.500160 
M514.679810,42.148087 
	C516.700195,36.933876 514.734131,32.117435 510.088715,32.194664 
	C507.748016,32.233582 504.140991,33.925499 503.458923,35.749557 
	C502.649445,37.914322 503.555359,41.764473 505.180817,43.559235 
	C507.838135,46.493267 511.384094,45.562366 514.679810,42.148087 
z"/>
<path fill="#98A3D8" opacity="0.500000" stroke="none"
	d="
M123.583328,1.000002 
	C134.142929,13.192601 144.931030,24.912218 154.290527,37.679150 
	C172.156845,62.049896 184.484985,89.147690 190.612289,118.853683 
	C194.434570,137.384613 195.013443,156.047043 192.325272,174.839630 
	C191.233200,182.474136 190.979813,190.228592 190.344818,197.928482 
	C190.834274,198.077988 191.323746,198.227493 191.813202,198.377014 
	C193.926651,191.596451 196.040100,184.815872 198.455841,177.065445 
	C203.753754,184.130646 208.598175,190.534256 213.381485,196.983200 
	C220.794373,206.977386 228.195084,216.980972 235.517807,227.041092 
	C236.457718,228.332352 237.457443,229.975754 237.483521,231.472519 
	C237.657181,241.443726 237.573593,251.419403 237.573593,261.833496 
	C219.993515,261.833496 202.755966,261.833496 185.109482,261.833496 
	C184.329697,269.042145 183.591965,275.862000 182.831650,282.890625 
	C170.987885,282.890625 159.356323,282.890625 147.376007,282.890625 
	C146.958908,287.820068 146.414551,292.553192 146.182831,297.301544 
	C145.395920,313.426971 144.786102,329.561066 143.985626,345.685760 
	C142.682144,371.943054 141.283157,398.195557 139.901810,424.448883 
	C139.886932,424.731689 139.566910,424.998413 139.194656,425.636292 
	C138.250000,426.000000 137.500000,426.000000 136.328308,425.582886 
	C135.614075,423.376312 135.131104,421.594513 135.058533,419.796173 
	C134.367249,402.667084 133.729004,385.535828 133.107178,368.404022 
	C131.736877,330.652069 130.347885,292.900726 129.039703,255.146591 
	C128.284546,233.352600 127.680923,211.553375 126.963615,189.757996 
	C126.933517,188.843582 126.441933,187.944351 126.165344,187.038055 
	C124.826424,194.636581 124.351837,202.067291 124.010033,209.504074 
	C123.246246,226.122238 122.633041,242.747650 121.803978,259.362396 
	C120.610580,283.278656 119.263466,307.187225 118.014748,331.100769 
	C117.416153,342.564331 116.955956,354.035706 116.248451,365.492126 
	C116.168007,366.794708 114.890022,368.023285 114.167320,369.286163 
	C113.206955,368.005127 112.167236,366.773254 111.327278,365.417633 
	C111.013535,364.911224 111.132843,364.117157 111.110382,363.452423 
	C110.733925,352.310394 110.435150,341.165314 109.980072,330.026550 
	C109.343452,314.444427 108.591766,298.866974 107.887451,283.246521 
	C103.747330,283.246521 100.002777,283.246521 95.997246,283.246521 
	C94.989494,306.198181 93.991882,328.919037 93.000420,351.499725 
	C88.902451,353.084747 88.286110,350.757812 88.001984,348.004913 
	C86.317535,331.683594 84.677177,315.357483 82.918938,299.044128 
	C82.363129,293.887207 81.490547,288.764435 80.765732,283.645752 
	C74.696175,283.645752 69.349937,283.385559 64.042801,283.729187 
	C59.894375,283.997833 58.971725,282.233978 58.914932,278.512421 
	C58.832291,273.096924 58.187660,267.689972 57.761749,262.000000 
	C38.595524,262.000000 19.797762,262.000000 1.000000,262.000000 
	C1.000000,251.312439 1.000000,240.624878 1.332420,229.393631 
	C15.490277,212.161057 29.315716,195.472183 43.623035,178.201614 
	C46.010715,185.530609 48.103836,191.955444 50.196953,198.380295 
	C50.725349,198.234970 51.253746,198.089645 51.782143,197.944336 
	C51.365128,192.397354 50.776321,186.856949 50.564236,181.302139 
	C49.994152,166.370758 48.242153,151.327789 49.404808,136.521149 
	C51.516747,109.625252 60.572289,84.547920 73.515350,60.885563 
	C85.683449,38.639980 101.151260,18.920774 119.000000,1.000000 
	C120.388893,1.000000 121.777779,1.000000 123.583328,1.000002 
M115.727661,123.998978 
	C119.777184,124.002907 123.957336,124.660851 127.850746,123.883171 
	C137.907013,121.874535 144.884659,113.411400 146.267685,102.527039 
	C147.500305,92.826363 142.145508,82.856773 133.200272,78.198036 
	C124.455406,73.643654 113.200897,74.968948 105.853394,81.390541 
	C90.652794,94.675583 96.172516,118.124664 115.727661,123.998978 
z"/>
<path fill="#FEFEFE" opacity="0.500000" stroke="none"
	d="
M1.000000,262.468658 
	C19.797762,262.000000 38.595524,262.000000 57.761749,262.000000 
	C58.187660,267.689972 58.832291,273.096924 58.914932,278.512421 
	C58.971725,282.233978 59.894375,283.997833 64.042801,283.729187 
	C69.349937,283.385559 74.696175,283.645752 80.765732,283.645752 
	C81.490547,288.764435 82.363129,293.887207 82.918938,299.044128 
	C84.677177,315.357483 86.317535,331.683594 88.001984,348.004913 
	C88.286110,350.757812 88.902451,353.084747 93.000420,351.499725 
	C93.991882,328.919037 94.989494,306.198181 95.997246,283.246521 
	C100.002777,283.246521 103.747330,283.246521 107.887451,283.246521 
	C108.591766,298.866974 109.343452,314.444427 109.980072,330.026550 
	C110.435150,341.165314 110.733925,352.310394 111.110382,363.452423 
	C111.132843,364.117157 111.013535,364.911224 111.327278,365.417633 
	C112.167236,366.773254 113.206955,368.005127 114.167320,369.286163 
	C114.890022,368.023285 116.168007,366.794708 116.248451,365.492126 
	C116.955956,354.035706 117.416153,342.564331 118.014748,331.100769 
	C119.263466,307.187225 120.610580,283.278656 121.803978,259.362396 
	C122.633041,242.747650 123.246246,226.122238 124.010033,209.504074 
	C124.351837,202.067291 124.826424,194.636581 126.165344,187.038055 
	C126.441933,187.944351 126.933517,188.843582 126.963615,189.757996 
	C127.680923,211.553375 128.284546,233.352600 129.039703,255.146591 
	C130.347885,292.900726 131.736877,330.652069 133.107178,368.404022 
	C133.729004,385.535828 134.367249,402.667084 135.058533,419.796173 
	C135.131104,421.594513 135.614075,423.376312 135.953308,425.582886 
	C91.065926,426.000000 46.131851,426.000000 1.000000,426.000000 
	C1.000000,371.645935 1.000000,317.291626 1.000000,262.468658 
z"/>
<path fill="#FEFEFE" opacity="0.500000" stroke="none" 
	d="
M118.531342,1.000000 
	C101.151260,18.920774 85.683449,38.639980 73.515350,60.885563 
	C60.572289,84.547920 51.516747,109.625252 49.404808,136.521149 
	C48.242153,151.327789 49.994152,166.370758 50.564236,181.302139 
	C50.776321,186.856949 51.365128,192.397354 51.782143,197.944336 
	C51.253746,198.089645 50.725349,198.234970 50.196953,198.380295 
	C48.103836,191.955444 46.010715,185.530609 43.623035,178.201614 
	C29.315716,195.472183 15.490277,212.161057 1.332420,228.924973 
	C1.000000,153.096191 1.000000,77.192368 1.000000,1.000000 
	C40.020420,1.000000 79.041550,1.000000 118.531342,1.000000 
z"/>
<path fill="#98A3D8" opacity="0.500000" stroke="none"
	d="
M1009.000000,249.545898 
	C1003.363403,262.735138 990.721924,263.910797 981.307556,263.603699 
	C980.318481,263.571442 979.342651,263.245544 978.351685,263.141296 
	C967.192871,261.967224 966.337585,260.924164 967.288391,251.010757 
	C974.023499,252.321487 980.810547,254.188522 987.710999,254.822586 
	C993.883728,255.389786 997.848206,252.339951 998.604736,247.649551 
	C999.473267,242.265137 995.836731,239.433273 991.719788,237.351242 
	C987.762695,235.350067 983.529236,233.903641 979.502930,232.029297 
	C969.927673,227.571732 966.275208,221.873077 967.597290,213.736053 
	C968.966125,205.310623 976.112610,198.831833 985.637695,198.112625 
	C990.564636,197.740631 995.577820,198.223465 1000.532104,198.589737 
	C1004.745239,198.901230 1007.135376,200.941238 1006.124084,205.645538 
	C1005.852417,206.909378 1006.083008,208.281174 1006.083008,209.849442 
	C1002.146912,208.689285 998.525940,207.159943 994.766968,206.651764 
	C991.407837,206.197647 987.562134,206.056290 984.553040,207.291748 
	C981.925171,208.370667 979.311035,211.216385 978.229248,213.901321 
	C976.786621,217.482056 978.971985,220.855515 982.320435,222.604935 
	C986.532104,224.805298 991.054382,226.403381 995.396301,228.363983 
	C1000.893311,230.846191 1006.197327,233.595001 1008.647583,239.950195 
	C1009.000000,243.030594 1009.000000,246.061188 1009.000000,249.545898 
z"/>
<path fill="#98A3D8" opacity="0.500000" stroke="none"
	d="
M483.242126,90.000084 
	C483.242126,101.477966 483.242126,112.455833 483.242126,123.720169 
	C479.928467,123.720169 476.821136,123.720169 473.269165,123.720169 
	C473.269165,100.404564 473.269165,76.890144 473.269165,53.375732 
	C473.001251,53.321018 472.733368,53.266300 472.465454,53.211586 
	C465.637726,68.603668 458.818481,83.999512 451.978577,99.386185 
	C448.702332,106.756264 445.473114,114.150078 442.000458,121.427139 
	C441.451599,122.577293 439.747040,123.790962 438.533722,123.836906 
	C437.307129,123.883377 435.359833,122.815346 434.868652,121.722809 
	C424.674194,99.048141 414.640106,76.301361 404.586365,53.563515 
	C404.155975,52.590118 403.841156,51.565617 403.188202,49.793255 
	C403.188202,74.911385 403.188202,99.166824 403.188202,123.714844 
	C399.930695,123.714844 396.705933,123.714844 393.257080,123.714844 
	C393.257080,94.553139 393.257080,65.486443 393.257080,35.987099 
	C397.238647,35.987099 401.071442,35.662220 404.798523,36.148045 
	C406.275787,36.340611 408.123932,38.066273 408.777008,39.546650 
	C418.542572,61.681957 428.135895,83.893211 437.772766,106.085281 
	C437.967926,106.534676 438.198456,106.968689 438.285919,107.148941 
	C448.148560,85.256264 458.226379,63.305676 467.849701,41.157600 
	C469.692535,36.916336 471.816833,35.301193 476.204651,35.941486 
	C478.303955,36.247837 480.485016,35.994217 483.242096,35.994217 
	C483.242096,54.004402 483.242096,71.752235 483.242126,90.000084 
z"/>
<path fill="#98A3D8" opacity="0.500000" stroke="none"
	d="
M897.994019,209.029587 
	C897.994019,205.559616 897.994019,202.584106 897.994019,199.296280 
	C901.448242,199.296280 904.684692,199.296280 908.356995,199.296280 
	C908.356995,202.366074 908.356995,205.475449 908.356995,209.761597 
	C909.549927,208.315964 909.993225,207.792084 910.422302,207.256851 
	C917.341309,198.626862 927.889099,195.448700 938.569519,198.778122 
	C948.336975,201.822952 955.327271,211.097046 955.951355,222.412857 
	C956.453979,231.527176 956.286743,240.531113 952.023315,249.083832 
	C943.946594,265.286530 920.308228,269.484406 908.690735,253.731705 
	C908.690735,266.429291 908.690735,278.400604 908.690735,290.689209 
	C904.943726,290.689209 901.732910,290.689209 897.994019,290.689209 
	C897.994019,263.653992 897.994019,236.589020 897.994019,209.029587 
M908.955383,240.282074 
	C910.844360,248.549133 916.476318,254.156052 923.698853,254.959991 
	C932.412170,255.929855 939.942993,252.336014 942.741211,244.065643 
	C944.853577,237.822220 946.019043,230.791290 945.567261,224.251724 
	C944.797241,213.107742 938.079102,206.680679 928.823914,206.030457 
	C920.035095,205.412994 911.431641,211.308548 909.541504,220.637756 
	C908.312866,226.702026 909.023193,233.159103 908.955383,240.282074 
z"/>
<path fill="#98A3D8" opacity="0.500000" stroke="none"
	d="
M590.096924,263.014374 
	C588.550476,262.712463 587.452087,262.378937 586.336304,262.120361 
	C573.942444,259.248352 575.615784,260.845184 576.225647,247.005615 
	C584.645264,252.480576 593.754761,254.556656 603.604004,254.032867 
	C613.291443,253.517654 619.124512,247.980850 617.881470,239.021881 
	C617.450745,235.917770 615.335876,232.496582 612.967712,230.346130 
	C609.729187,227.405228 605.565369,225.450424 601.704468,223.236328 
	C597.403259,220.769745 592.868896,218.692795 588.661560,216.082672 
	C578.181885,209.581284 573.950378,201.008163 576.083923,191.239899 
	C578.037842,182.293976 587.270020,174.182755 598.117981,173.179260 
	C605.296448,172.515198 612.619019,173.199203 619.864319,173.545578 
	C624.106079,173.748367 626.515442,175.822586 625.649841,180.593338 
	C625.309265,182.470428 625.594055,184.460983 625.594055,186.946686 
	C616.163269,181.908997 606.748779,180.502182 596.923706,183.047028 
	C592.155090,184.282181 588.318420,187.130737 587.161682,191.997040 
	C585.886475,197.361908 587.344482,202.408005 592.196411,205.588135 
	C596.728455,208.558594 601.623169,210.970337 606.302673,213.722610 
	C610.838745,216.390533 615.465271,218.948807 619.765503,221.963974 
	C627.827637,227.616867 630.574402,235.821823 628.797852,245.135696 
	C627.040894,254.346695 620.513489,260.011322 611.670776,261.773285 
	C604.815674,263.139252 597.595032,262.670685 590.096924,263.014374 
z"/>
<path fill="#98A3D8" opacity="0.500000" stroke="none" 
	d="
M717.470459,261.913330 
	C716.659729,259.314911 716.288940,256.803192 715.810059,253.558746 
	C711.548279,259.008728 706.807678,262.539307 700.100525,263.458130 
	C689.079773,264.967896 679.251770,259.531403 677.169983,250.048325 
	C674.692871,238.764542 680.532898,228.834549 691.808411,226.064133 
	C697.890381,224.569778 704.198730,224.001236 710.399902,222.984573 
	C712.309998,222.671432 714.203491,222.257828 715.963867,221.917450 
	C717.295959,210.266891 709.818176,202.698120 694.746216,207.534302 
	C690.898010,208.769089 687.348816,210.935822 683.709473,212.652084 
	C681.429443,205.298996 682.387085,201.980850 689.666077,200.260590 
	C696.645081,198.611267 704.126892,197.776230 711.244385,198.352844 
	C720.554443,199.107086 726.300415,207.105377 726.807190,219.550583 
	C727.375244,233.498825 726.937683,247.488007 726.937683,262.000061 
	C723.789368,262.000061 720.849854,262.000061 717.470459,261.913330 
M687.963196,248.267792 
	C691.394653,254.348785 697.096130,256.583374 703.902649,254.515015 
	C713.621826,251.561523 718.165466,242.357239 715.671875,230.425751 
	C709.811768,231.281631 703.919739,232.016129 698.075134,233.025452 
	C689.379578,234.527069 686.052185,239.300217 687.963196,248.267792 
z"/>
<path fill="#98A3D8" opacity="0.500000" stroke="none" 
	d="
M660.009644,59.699738 
	C670.239563,59.752453 678.694641,62.564114 684.616760,70.958466 
	C693.341614,83.325569 692.683105,110.696777 677.509583,120.356331 
	C667.196228,126.921883 651.806946,127.502602 641.762329,121.202492 
	C630.728638,114.282089 626.935974,100.081612 628.348511,88.518402 
	C629.883118,75.955627 635.212158,65.999779 647.851685,61.651848 
	C651.526855,60.387611 655.630371,60.368374 660.009644,59.699738 
M640.075317,103.040169 
	C640.644043,104.227478 641.167969,105.438828 641.788818,106.598228 
	C646.005493,114.472183 653.247620,117.995628 663.007324,116.948593 
	C670.489746,116.145866 676.890442,111.109787 678.436707,103.008835 
	C679.583435,97.001366 679.539062,90.571144 678.865845,84.456886 
	C677.821655,74.972687 671.313782,69.282349 661.683655,68.112396 
	C652.863708,67.040878 644.392822,71.999336 641.011597,80.316917 
	C638.099915,87.479462 638.354675,94.826698 640.075317,103.040169 
z"/>
<path fill="#98A3D8" opacity="0.500000" stroke="none" 
	d="
M483.782471,211.425018 
	C491.483093,227.724686 488.850281,246.818115 477.242767,256.537781 
	C466.870239,265.223389 454.828583,265.951385 442.860901,260.845520 
	C431.402191,255.956787 426.566772,246.055084 425.976654,233.908859 
	C425.423096,222.514679 427.888306,212.386765 436.889832,204.369446 
	C447.115570,195.261703 474.282379,193.611588 483.782471,211.425018 
M436.492004,227.074768 
	C436.648254,230.519531 436.568481,233.994568 437.005890,237.403259 
	C438.223663,246.893692 445.601746,254.246033 454.356445,254.971466 
	C466.056458,255.940964 473.298920,251.184860 476.288208,240.258728 
	C477.063293,237.425735 477.425995,234.385742 477.398163,231.446320 
	C477.335541,224.827316 476.958313,218.180573 472.355011,212.767487 
	C467.083557,206.568680 458.523804,204.254456 450.186493,207.222229 
	C441.390503,210.353287 437.578613,217.323715 436.492004,227.074768 
z"/>
<path fill="#98A3D8" opacity="0.500000" stroke="none" 
	d="
M766.575073,64.428749 
	C781.516174,56.209572 799.006531,58.431664 808.141174,69.544113 
	C819.913208,83.865120 818.310059,118.021362 793.264282,124.426224 
	C772.776672,129.665466 753.690552,118.828445 752.981689,95.029251 
	C752.616577,82.773079 755.768005,72.113487 766.575073,64.428749 
M800.983887,76.753860 
	C796.014038,69.561630 789.101929,67.107162 780.654968,68.460060 
	C771.739075,69.888046 766.368286,75.481483 764.608459,83.902245 
	C763.519470,89.112999 763.612854,94.742386 764.156006,100.084175 
	C765.066650,109.041527 773.064209,116.342628 781.680054,116.976936 
	C792.929504,117.805138 799.940491,113.495506 802.995667,103.428352 
	C805.668640,94.620468 805.339355,85.883102 800.983887,76.753860 
z"/>
<path fill="#98A3D8" opacity="0.500000" stroke="none" 
	d="
M868.970581,238.508835 
	C868.987000,225.247192 868.987000,212.436462 868.987000,199.304688 
	C872.246948,199.304688 875.324646,199.304688 878.758118,199.304688 
	C878.758118,219.893036 878.758118,240.619064 878.758118,261.675842 
	C875.763611,261.675842 872.553223,261.675842 869.036743,261.675842 
	C869.036743,258.977448 869.036743,256.384766 869.036743,252.721054 
	C861.480530,263.436707 851.954102,265.668213 840.770813,262.260162 
	C830.707153,259.193329 827.619446,250.880417 827.199036,241.859131 
	C826.542114,227.763535 827.025024,213.614822 827.025024,199.240082 
	C830.377686,199.240082 833.447205,199.240082 837.005249,199.240082 
	C837.005249,210.923981 836.950256,222.533493 837.045044,234.141800 
	C837.067810,236.931503 837.333435,239.772568 837.926514,242.494308 
	C839.713928,250.697098 843.380371,254.390823 849.925842,254.988754 
	C857.803772,255.708450 863.983276,252.212158 867.095764,245.081665 
	C867.943115,243.140472 868.346863,241.005676 868.970581,238.508835 
z"/>
<path fill="#98A3D8" opacity="0.500000" stroke="none"
	d="
M405.611359,261.589478 
	C402.322571,261.934937 399.363922,261.934937 396.008606,261.934937 
	C396.008606,243.937485 396.008606,226.207947 396.008606,208.008545 
	C392.227112,208.008545 388.820374,208.008545 385.219971,208.008545 
	C385.219971,204.927597 385.219971,202.314865 385.219971,199.250931 
	C388.474579,199.250931 391.880127,199.250931 395.940552,199.250931 
	C395.940552,195.396866 395.914795,191.973419 395.945007,188.550461 
	C396.072113,174.158936 405.544952,165.958908 419.782867,167.885971 
	C420.735168,168.014847 421.700043,168.050491 422.864624,168.146423 
	C422.864624,171.142273 422.864624,173.920074 422.864624,177.090073 
	C421.841492,176.872971 420.953949,176.714569 420.081818,176.494904 
	C412.418274,174.564743 406.742126,178.339966 406.074341,186.156952 
	C405.724304,190.254135 406.012543,194.405853 406.012543,198.864258 
	C410.928040,198.864258 415.529755,198.864258 420.478394,198.864258 
	C420.478394,201.903137 420.478394,204.613052 420.478394,207.691864 
	C415.881134,207.691864 411.280243,207.691864 405.941498,207.691864 
	C405.941498,225.772919 405.941498,243.508453 405.611359,261.589478 
z"/>
<path fill="#98A3D8" opacity="0.500000" stroke="none"
	d="
M827.082153,69.950783 
	C823.918030,70.368111 822.577271,69.468086 822.949036,66.505600 
	C823.152161,64.886696 822.985291,63.221367 822.985291,61.078243 
	C826.575745,61.078243 829.974670,61.078243 833.953979,61.078243 
	C833.953979,56.645855 833.843750,52.697338 833.974182,48.756783 
	C834.400330,35.878593 844.042908,27.945745 856.917053,29.781958 
	C858.067078,29.945978 859.229980,30.019451 860.701660,30.166412 
	C860.701660,33.066746 860.701660,35.983665 860.701660,39.185074 
	C859.265381,38.817642 857.892700,38.356220 856.482300,38.124325 
	C849.571594,36.988041 844.368835,41.090305 844.044312,48.086739 
	C843.853149,52.206783 844.009399,56.342941 844.009399,60.899338 
	C848.818787,60.899338 853.402710,60.899338 858.225647,60.899338 
	C858.225647,64.076538 858.225647,66.823296 858.225647,69.842072 
	C853.529846,69.842072 849.080933,69.842072 844.219482,69.842072 
	C844.219482,87.824020 844.219482,105.544006 844.219482,123.638550 
	C840.631531,123.638550 837.448303,123.638550 833.826416,123.638550 
	C833.826416,105.848618 833.826416,88.127655 833.826416,69.950699 
	C831.457092,69.950699 829.505188,69.950699 827.082153,69.950783 
z"/>
<path fill="#98A3D8" opacity="0.500000" stroke="none" 
	d="
M724.112793,68.015167 
	C718.689453,68.751457 713.510681,69.439293 712.085022,75.456490 
	C711.015137,79.971863 713.268372,83.209114 717.272034,85.105820 
	C721.728760,87.217125 726.335144,89.009918 730.824524,91.055359 
	C740.421265,95.427902 743.925293,100.885574 743.008484,109.831505 
	C742.289795,116.843727 735.440552,123.803650 726.571167,124.767120 
	C720.131287,125.466698 713.487488,124.452316 706.947449,124.011581 
	C702.352539,123.701927 700.167725,121.281586 700.997437,116.463043 
	C701.269714,114.881950 701.040283,113.214455 701.040283,111.030212 
	C707.664551,115.270683 714.463135,117.999809 721.928284,116.832924 
	C725.274780,116.309837 729.195801,114.870193 731.367615,112.488899 
	C734.721313,108.811852 732.545837,103.053986 727.174622,100.181290 
	C722.998413,97.947723 718.443665,96.434586 714.135132,94.433250 
	C704.853577,90.121910 700.309570,83.940048 701.147583,77.001854 
	C702.181396,68.442734 708.422607,62.324516 718.312561,60.175259 
	C723.850647,58.971737 734.307861,60.051525 739.860107,62.436787 
	C739.860107,65.514862 739.860107,68.640419 739.860107,71.408623 
	C734.704224,70.265472 729.622498,69.138763 724.112793,68.015167 
z"/>
<path fill="#98A3D8" opacity="0.500000" stroke="none" 
	d="
M669.240967,257.944641 
	C669.708069,261.175842 668.399658,262.508514 665.651855,263.043030 
	C651.302856,265.834381 643.250000,259.301880 643.140259,244.580032 
	C643.052002,232.749725 643.076416,220.918610 643.045227,209.087860 
	C643.044800,208.933426 642.970154,208.779175 642.817139,208.188782 
	C639.703003,208.188782 636.453186,208.188782 632.789124,208.188782 
	C632.789124,205.056580 632.789124,202.348343 632.789124,199.211456 
	C635.928955,199.211456 639.182556,199.211456 643.118774,199.211456 
	C643.118774,195.571854 643.438416,192.276382 643.040161,189.070038 
	C642.509399,184.796448 644.103027,182.593491 648.278503,181.963196 
	C649.855164,181.725220 651.389709,181.208160 653.398010,180.704269 
	C653.398010,186.909363 653.398010,192.675018 653.398010,198.805725 
	C658.713379,198.805725 663.666016,198.805725 668.938782,198.805725 
	C668.938782,201.900604 668.938782,204.636780 668.938782,207.817841 
	C664.043030,207.817841 659.130554,207.817841 654.111084,207.817841 
	C654.111084,221.807861 653.862976,235.373810 654.252319,248.921432 
	C654.379944,253.361649 659.452637,255.822479 664.636902,254.854584 
	C666.031372,254.594238 667.357361,253.967316 669.240662,253.331009 
	C669.240662,254.996323 669.240662,256.274353 669.240967,257.944641 
z"/>
<path fill="#98A3D8" opacity="0.500000" stroke="none" 
	d="
M871.057251,84.005615 
	C871.057190,79.200737 871.057190,74.894417 871.057190,70.017883 
	C867.490784,70.017883 864.107422,70.017883 860.520447,70.017883 
	C860.520447,66.859535 860.520447,64.266426 860.520447,61.287987 
	C863.800781,61.287987 867.057495,61.287987 871.055542,61.287987 
	C871.055542,57.851982 871.415527,54.725502 870.974121,51.716583 
	C870.247681,46.764252 872.299133,44.435123 877.018921,43.840038 
	C878.261841,43.683327 879.462097,43.188419 881.154663,42.717201 
	C881.154663,48.931267 881.154663,54.696327 881.154663,60.938030 
	C886.578796,60.938030 891.648193,60.938030 896.897644,60.938030 
	C896.897644,64.030670 896.897644,66.642593 896.897644,69.742081 
	C891.893311,69.742081 886.822266,69.742081 881.664917,69.742081 
	C881.664917,82.948433 881.103577,95.704361 881.869080,108.380157 
	C882.351257,116.365150 887.465637,118.665260 895.264771,115.976883 
	C895.734436,115.814995 896.215698,115.686615 896.696350,115.541176 
	C896.821960,115.857597 897.029236,116.145454 897.039856,116.440430 
	C897.337036,124.653076 896.699768,125.319725 888.467041,125.467865 
	C877.218140,125.670296 871.483337,120.029282 871.111694,107.958778 
	C870.871216,100.147415 871.060608,92.322830 871.057251,84.005615 
z"/>
<path fill="#98A3D8" opacity="0.500000" stroke="none" 
	d="
M796.371277,260.845459 
	C791.382996,256.631012 790.036621,251.275208 790.012512,245.456268 
	C789.961609,233.162430 789.997009,220.868210 789.997009,208.068314 
	C786.427734,208.068314 783.037292,208.068314 779.384277,208.068314 
	C779.384277,204.977966 779.384277,202.378830 779.384277,199.284454 
	C782.598633,199.284454 785.993835,199.284454 789.791504,199.284454 
	C789.791504,193.898239 789.791504,188.980072 789.791504,183.811691 
	C793.138916,182.725372 796.198303,181.732513 799.884155,180.536346 
	C799.884155,186.835815 799.884155,192.673889 799.884155,198.952255 
	C805.462158,198.952255 810.534363,198.952255 815.801147,198.952255 
	C815.801147,202.010345 815.801147,204.624481 815.801147,207.700150 
	C810.831055,207.700150 805.755981,207.700150 800.059875,207.700150 
	C800.059875,219.893478 799.947388,231.639465 800.093750,243.382233 
	C800.221985,253.675232 805.401794,257.009216 815.479980,253.564804 
	C816.906189,262.186188 816.161255,263.393311 807.649170,263.312836 
	C803.986694,263.278229 800.337341,261.856720 796.371277,260.845459 
z"/>
<path fill="#98A3D8" opacity="0.500000" stroke="none" 
	d="
M564.187012,125.151154 
	C545.398926,128.634735 529.279846,115.238808 528.912537,96.513977 
	C528.750000,88.225182 529.738708,80.334816 534.309814,73.242516 
	C542.677917,60.259045 558.286255,57.330948 573.205444,61.371845 
	C573.997131,61.586273 574.746582,61.956745 575.777893,62.356125 
	C575.777893,65.476326 575.777893,68.756905 575.777893,71.217781 
	C570.148315,70.249001 564.301453,68.433594 558.461426,68.455444 
	C552.060242,68.479393 546.935364,72.225174 543.391357,77.727287 
	C537.102966,87.490059 537.734680,102.537422 544.742981,110.250153 
	C552.295288,118.561531 561.824097,119.227440 575.446899,112.395851 
	C577.096252,122.239227 575.566406,124.035896 564.187012,125.151154 
z"/>
<path fill="#98A3D8" opacity="0.500000" stroke="none" 
	d="
M756.533569,217.872299 
	C755.755859,227.429260 755.118530,236.659775 754.721375,245.900620 
	C754.501038,251.028351 754.681885,256.173309 754.681885,261.665771 
	C751.189270,261.665771 747.961426,261.665771 744.410156,261.665771 
	C744.410156,241.079849 744.410156,220.370712 744.410156,199.319366 
	C747.536133,199.319366 750.776855,199.319366 754.557617,199.319366 
	C754.557617,202.396637 754.557617,205.602982 754.557617,208.842728 
	C757.994934,205.595657 760.696289,201.831528 764.363525,199.928833 
	C767.859680,198.114868 772.362976,198.241928 776.830200,197.442917 
	C776.830200,202.125381 776.830200,205.401413 776.830200,208.703339 
	C765.908936,205.938812 761.052368,208.097549 756.533569,217.872299 
z"/>
<path fill="#98A3D8" opacity="0.500000" stroke="none" 
	d="
M599.603271,61.406300 
	C599.932190,65.402794 599.932190,69.061615 599.932190,73.675240 
	C601.536560,70.904297 602.494751,68.767426 603.893372,66.974091 
	C605.198608,65.300522 606.848572,63.825607 608.563660,62.556129 
	C612.589966,59.575863 617.643738,58.589634 621.650269,60.840046 
	C623.467041,61.860500 622.939819,67.054138 623.599976,71.118263 
	C617.333984,68.860680 611.892944,68.290863 607.216858,72.423180 
	C601.706787,77.292442 600.321472,84.004814 600.142517,90.862907 
	C599.860535,101.670021 600.067566,112.489899 600.067566,123.667717 
	C596.832581,123.667717 593.759216,123.667717 590.337036,123.667717 
	C590.337036,103.081696 590.337036,82.231316 590.337036,61.068634 
	C593.364258,61.068634 596.319275,61.068634 599.603271,61.406300 
z"/>
<path fill="#98A3D8" opacity="0.500000" stroke="none" 
	d="
M514.151489,208.999451 
	C517.886108,202.254547 522.579529,197.768921 530.689270,197.888306 
	C534.873169,197.949890 536.482422,199.303360 535.940552,203.421875 
	C535.726379,205.049927 535.905457,206.729721 535.905457,208.415970 
	C532.595825,208.090103 529.361023,207.119492 526.360413,207.602753 
	C518.466614,208.874146 513.069153,217.048370 513.016541,227.094223 
	C512.956604,238.545853 513.002686,249.998047 513.002686,261.730591 
	C509.677551,261.730591 506.604218,261.730591 503.217407,261.730591 
	C503.217407,241.078491 503.217407,220.370209 503.217407,199.328369 
	C506.164886,199.328369 509.239990,199.328369 513.034180,199.328369 
	C513.034180,202.523071 513.033081,205.937424 513.037476,209.351791 
	C513.037720,209.516098 513.086487,209.680344 513.112671,209.844620 
	C513.417725,209.671860 513.722717,209.499115 514.151489,208.999451 
z"/>
<path fill="#98A3D8" opacity="0.500000" stroke="none"
	d="
M314.848267,104.999954 
	C314.848236,79.393761 314.848236,54.287575 314.848236,27.559725 
	C316.461456,29.342152 317.366333,29.916296 317.584290,30.685154 
	C317.891144,31.767603 317.702087,32.994423 317.702118,34.159512 
	C317.703094,109.415779 317.706665,184.672043 317.670288,259.928314 
	C317.669434,261.687988 317.216644,263.447479 316.974640,265.207031 
	C316.265839,265.121216 315.557068,265.035400 314.848267,264.949585 
	C314.848267,211.799698 314.848267,158.649826 314.848267,104.999954 
z"/>
<path fill="#98A3D8" opacity="0.500000" stroke="none"
	d="
M513.999268,82.000137 
	C513.999268,96.132545 513.999268,109.764969 513.999268,123.699081 
	C510.709106,123.699081 507.641541,123.699081 504.282227,123.699081 
	C504.282227,103.026642 504.282227,82.299683 504.282227,61.284805 
	C507.275055,61.284805 510.345032,61.284805 513.999268,61.284805 
	C513.999268,67.970757 513.999268,74.735458 513.999268,82.000137 
z"/>
<path fill="#98A3D8" opacity="0.500000" stroke="none" 
	d="
M514.432922,42.453228 
	C511.384094,45.562366 507.838135,46.493267 505.180817,43.559235 
	C503.555359,41.764473 502.649445,37.914322 503.458923,35.749557 
	C504.140991,33.925499 507.748016,32.233582 510.088715,32.194664 
	C514.734131,32.117435 516.700195,36.933876 514.432922,42.453228 
z"/>
<path fill="#FDFDFD" opacity="0.500000" stroke="none" 
	d="
M115.318939,123.967972 
	C96.172516,118.124664 90.652794,94.675583 105.853394,81.390541 
	C113.200897,74.968948 124.455406,73.643654 133.200272,78.198036 
	C142.145508,82.856773 147.500305,92.826363 146.267685,102.527039 
	C144.884659,113.411400 137.907013,121.874535 127.850746,123.883171 
	C123.957336,124.660851 119.777184,124.002907 115.318939,123.967972 
z"/>
<path fill="#FDFCFC" opacity="0.500000" stroke="none" 
	d="
M908.910095,239.861145 
	C909.023193,233.159103 908.312866,226.702026 909.541504,220.637756 
	C911.431641,211.308548 920.035095,205.412994 928.823914,206.030457 
	C938.079102,206.680679 944.797241,213.107742 945.567261,224.251724 
	C946.019043,230.791290 944.853577,237.822220 942.741211,244.065643 
	C939.942993,252.336014 932.412170,255.929855 923.698853,254.959991 
	C916.476318,254.156052 910.844360,248.549133 908.910095,239.861145 
z"/>
<path fill="#FDFCFC" opacity="0.500000" stroke="none" 
	d="
M687.841797,247.895905 
	C686.052185,239.300217 689.379578,234.527069 698.075134,233.025452 
	C703.919739,232.016129 709.811768,231.281631 715.671875,230.425751 
	C718.165466,242.357239 713.621826,251.561523 703.902649,254.515015 
	C697.096130,256.583374 691.394653,254.348785 687.841797,247.895905 
z"/>
<path fill="#FDFDFD" opacity="0.500000" stroke="none" 
	d="
M640.022949,102.631088 
	C638.354675,94.826698 638.099915,87.479462 641.011597,80.316917 
	C644.392822,71.999336 652.863708,67.040878 661.683655,68.112396 
	C671.313782,69.282349 677.821655,74.972687 678.865845,84.456886 
	C679.539062,90.571144 679.583435,97.001366 678.436707,103.008835 
	C676.890442,111.109787 670.489746,116.145866 663.007324,116.948593 
	C653.247620,117.995628 646.005493,114.472183 641.788818,106.598228 
	C641.167969,105.438828 640.644043,104.227478 640.022949,102.631088 
z"/>
<path fill="#FDFDFD" opacity="0.500000" stroke="none" 
	d="
M436.619659,226.659760 
	C437.578613,217.323715 441.390503,210.353287 450.186493,207.222229 
	C458.523804,204.254456 467.083557,206.568680 472.355011,212.767487 
	C476.958313,218.180573 477.335541,224.827316 477.398163,231.446320 
	C477.425995,234.385742 477.063293,237.425735 476.288208,240.258728 
	C473.298920,251.184860 466.056458,255.940964 454.356445,254.971466 
	C445.601746,254.246033 438.223663,246.893692 437.005890,237.403259 
	C436.568481,233.994568 436.648254,230.519531 436.619659,226.659760 
z"/>
<path fill="#FDFCFC" opacity="0.500000" stroke="none" 
	d="
M801.112427,77.110550 
	C805.339355,85.883102 805.668640,94.620468 802.995667,103.428352 
	C799.940491,113.495506 792.929504,117.805138 781.680054,116.976936 
	C773.064209,116.342628 765.066650,109.041527 764.156006,100.084175 
	C763.612854,94.742386 763.519470,89.112999 764.608459,83.902245 
	C766.368286,75.481483 771.739075,69.888046 780.654968,68.460060 
	C789.101929,67.107162 796.014038,69.561630 801.112427,77.110550 
z"/>
</svg>