<?xml version="1.0" standalone="no"?>
<!DOCTYPE svg PUBLIC "-//W3C//DTD SVG 20010904//EN"
 "http://www.w3.org/TR/2001/REC-SVG-20010904/DTD/svg10.dtd">
<svg version="1.0" xmlns="http://www.w3.org/2000/svg"
 width="299.000000pt" height="169.000000pt" viewBox="0 0 299.000000 169.000000"
 preserveAspectRatio="xMidYMid meet">

<g transform="translate(0.000000,169.000000) scale(0.100000,-0.100000)"
fill="#98A3D8" fill-rule="nonzero " opacity="0.5">
<path d="M819 1253 c0 -5 0 -31 1 -60 l1 -52 -35 6 c-64 10 -66 3 -66 -198 0
-99 -2 -179 -5 -179 -3 0 -120 85 -259 190 -265 199 -289 212 -320 168 -13
-19 -16 -61 -16 -255 0 -220 1 -234 20 -253 25 -25 52 -26 73 -2 14 15 17 48
19 196 l3 177 263 -197 c254 -191 265 -197 293 -187 27 10 30 9 35 -13 7 -28
65 -81 98 -90 13 -3 136 -4 272 -2 214 3 255 6 289 22 70 32 133 85 174 148
l41 60 0 -134 c0 -149 7 -169 66 -194 68 -28 141 17 151 95 l6 41 146 0 147 0
68 -69 c75 -76 107 -89 160 -67 45 19 66 52 66 104 0 37 -6 49 -43 89 l-43 46
35 53 35 53 38 -39 c97 -97 282 -87 357 19 44 61 7 102 -39 44 -58 -75 -164
-96 -246 -48 -43 25 -94 106 -94 149 0 47 24 103 59 137 45 45 102 64 166 54
39 -5 57 -16 98 -57 39 -39 54 -48 66 -41 26 17 23 31 -15 73 -55 60 -106 84
-184 84 -77 0 -130 -24 -179 -80 -26 -29 -35 -34 -42 -23 -5 8 -9 18 -9 22 0
19 -99 111 -145 135 -49 27 -53 27 -289 30 -132 2 -250 1 -264 -3 -13 -3 -35
-18 -48 -32 -20 -22 -24 -36 -24 -92 l0 -66 -30 51 c-53 94 -152 164 -259 184
-62 11 -591 14 -592 3z m1419 -283 c62 -38 70 -114 18 -166 l-34 -34 -151 0
-151 0 0 110 0 110 143 0 c124 0 146 -3 175 -20z m-844 -52 c22 -32 20 -55 -9
-83 -23 -24 -30 -25 -140 -25 l-115 0 0 65 0 65 124 0 c118 0 126 -1 140 -22z"/>
</g>
</svg>
