<?xml version="1.0" encoding="UTF-8"?>
<!DOCTYPE svg PUBLIC "-//W3C//DTD SVG 1.1//EN" "http://www.w3.org/Graphics/SVG/1.1/DTD/svg11.dtd">
<svg xmlns="http://www.w3.org/2000/svg" version="1.1" width="375px" height="375px" style="shape-rendering:geometricPrecision; text-rendering:geometricPrecision; image-rendering:optimizeQuality; fill-rule:evenodd; clip-rule:evenodd" xmlns:xlink="http://www.w3.org/1999/xlink" opacity="0.5">
<g><path style="opacity:0.983" fill="#232d3d" d="M -0.5,-0.5 C 84.8333,-0.5 170.167,-0.5 255.5,-0.5C 294.833,39.5 334.5,79.1667 374.5,118.5C 374.5,203.833 374.5,289.167 374.5,374.5C 288.5,374.5 202.5,374.5 116.5,374.5C 77.8333,335.167 38.8333,296.167 -0.5,257.5C -0.5,171.5 -0.5,85.5 -0.5,-0.5 Z"/></g>
<g><path style="opacity:1" fill="#fefefe" d="M 7.5,7.5 C 88.834,7.33334 170.167,7.5 251.5,8C 289.667,46.1667 327.833,84.3333 366,122.5C 366.5,203.833 366.667,285.166 366.5,366.5C 284.499,366.667 202.499,366.5 120.5,366C 83,328.5 45.5,291 8,253.5C 7.5,171.501 7.33334,89.5007 7.5,7.5 Z"/></g>
<g><path style="opacity:1" fill="#2c3444" d="M 61.5,57.5 C 65.8461,57.3343 70.1794,57.501 74.5,58C 78.4979,59.4864 80.9979,62.3197 82,66.5C 82.3307,75.4922 83.4973,84.3255 85.5,93C 82.1179,97.7977 78.9512,97.631 76,92.5C 68.9989,98.635 61.8323,98.9683 54.5,93.5C 49.6962,83.7661 52.3628,77.2661 62.5,74C 66.8706,73.3708 71.204,73.5375 75.5,74.5C 75.6275,65.035 70.9608,61.535 61.5,64C 59.3853,64.5573 57.3853,65.3906 55.5,66.5C 53.6163,65.3073 53.1163,63.6406 54,61.5C 56.2552,59.5012 58.7552,58.1679 61.5,57.5 Z"/></g>
<g><path style="opacity:1" fill="#2b3443" d="M 149.5,57.5 C 155.037,57.0866 160.37,57.9199 165.5,60C 166.406,61.6995 166.739,63.5328 166.5,65.5C 161.647,63.7944 156.647,63.2944 151.5,64C 147.5,67 147.5,70 151.5,73C 157.325,73.6643 162.492,75.8309 167,79.5C 170.354,87.9498 167.854,93.7831 159.5,97C 154.833,97.6667 150.167,97.6667 145.5,97C 141.229,96.2303 139.563,93.7303 140.5,89.5C 144.454,90.3717 148.454,91.0383 152.5,91.5C 155.861,91.8881 158.694,90.8881 161,88.5C 161.825,86.2992 161.325,84.4659 159.5,83C 154.757,81.5304 150.091,79.8637 145.5,78C 137.976,69.5129 139.31,62.6795 149.5,57.5 Z"/></g>
<g><path style="opacity:1" fill="#2f3746" d="M 87.5,58.5 C 89.7925,58.2436 91.9592,58.5769 94,59.5C 96.802,68.0735 99.302,76.7401 101.5,85.5C 103.878,77.2474 106.044,68.914 108,60.5C 111,57.8333 114,57.8333 117,60.5C 119,69.1667 121,77.8333 123,86.5C 125.643,77.927 127.977,69.2603 130,60.5C 132.915,57.8655 135.748,57.8655 138.5,60.5C 134.938,71.8107 131.438,83.144 128,94.5C 125.24,96.703 122.24,97.0363 119,95.5C 116.981,87.0108 114.648,78.6775 112,70.5C 109.829,79.1857 107.662,87.8523 105.5,96.5C 102.289,96.988 99.456,96.3213 97,94.5C 93.9038,83.2113 90.4038,72.0446 86.5,61C 86.7432,60.0979 87.0766,59.2646 87.5,58.5 Z"/></g>
<g><path style="opacity:1" fill="#f8f8f9" d="M 63.5,79.5 C 67.5,79.5 71.5,79.5 75.5,79.5C 76.4114,88.5348 72.4114,92.3681 63.5,91C 59.5548,87.1694 59.5548,83.3361 63.5,79.5 Z"/></g>
<g><path style="opacity:1" fill="#eb9b47" d="M 157.5,105.5 C 162.897,105.215 168.23,105.549 173.5,106.5C 174.888,114.836 172.555,122.002 166.5,128C 165.365,128.749 164.365,128.583 163.5,127.5C 165.937,122.697 167.437,117.697 168,112.5C 167.5,112 167,111.5 166.5,111C 160.994,110.626 155.661,110.459 150.5,110.5C 152.37,108.076 154.703,106.409 157.5,105.5 Z"/></g>
<g><path style="opacity:1" fill="#ea9943" d="M 47.5,107.5 C 84.0272,127.328 121.694,129.661 160.5,114.5C 162,114.453 163,115.119 163.5,116.5C 150.822,126.009 136.489,131.509 120.5,133C 93.1839,135.838 69.1839,128.338 48.5,110.5C 47.6143,109.675 47.281,108.675 47.5,107.5 Z"/></g>
<g><path style="opacity:1" fill="#525461" d="M 200.5,193.5 C 200.5,191.5 200.5,189.5 200.5,187.5C 190.5,187.5 180.5,187.5 170.5,187.5C 170.5,189.5 170.5,191.5 170.5,193.5C 170.167,193.5 169.833,193.5 169.5,193.5C 169.5,191.167 169.5,188.833 169.5,186.5C 180.167,186.5 190.833,186.5 201.5,186.5C 201.802,189.059 201.468,191.393 200.5,193.5 Z"/></g>
<g><path style="opacity:1" fill="#283141" d="M 52.5,186.5 C 58.8421,186.334 65.1754,186.5 71.5,187C 81.2892,192.07 82.9559,199.07 76.5,208C 71.4386,210.259 66.1052,211.092 60.5,210.5C 60.5,215.167 60.5,219.833 60.5,224.5C 57.8333,224.5 55.1667,224.5 52.5,224.5C 52.5,211.833 52.5,199.167 52.5,186.5 Z"/></g>
<g><path style="opacity:1" fill="#2b3343" d="M 99.5,186.5 C 102.518,186.335 105.518,186.502 108.5,187C 113.124,199.036 117.457,211.203 121.5,223.5C 114.452,226.151 110.785,223.818 110.5,216.5C 106.154,216.334 101.821,216.501 97.5,217C 96.4459,219.382 95.7792,221.882 95.5,224.5C 92.5,224.5 89.5,224.5 86.5,224.5C 90.4363,211.691 94.7696,199.024 99.5,186.5 Z"/></g>
<g><path style="opacity:1" fill="#273040" d="M 161.5,223.5 C 159.052,224.473 156.385,224.806 153.5,224.5C 151.092,220.687 148.925,216.687 147,212.5C 145.211,210.771 143.044,210.104 140.5,210.5C 140.5,215.167 140.5,219.833 140.5,224.5C 137.833,224.5 135.167,224.5 132.5,224.5C 132.5,211.833 132.5,199.167 132.5,186.5C 138.842,186.334 145.175,186.5 151.5,187C 162.634,193.345 163.3,200.678 153.5,209C 156.572,213.647 159.238,218.48 161.5,223.5 Z"/></g>
<g><path style="opacity:1" fill="#252f3e" d="M 200.5,193.5 C 196.833,193.5 193.167,193.5 189.5,193.5C 189.5,203.833 189.5,214.167 189.5,224.5C 186.833,224.5 184.167,224.5 181.5,224.5C 181.5,214.167 181.5,203.833 181.5,193.5C 177.833,193.5 174.167,193.5 170.5,193.5C 170.5,191.5 170.5,189.5 170.5,187.5C 180.5,187.5 190.5,187.5 200.5,187.5C 200.5,189.5 200.5,191.5 200.5,193.5 Z"/></g>
<g><path style="opacity:1" fill="#252f3f" d="M 235.5,209.5 C 235.987,210.473 236.487,211.473 237,212.5C 237.5,203.84 237.666,195.173 237.5,186.5C 239.833,186.5 242.167,186.5 244.5,186.5C 244.5,199.167 244.5,211.833 244.5,224.5C 241.482,224.665 238.482,224.498 235.5,224C 230.792,216.083 225.959,208.25 221,200.5C 220.5,208.493 220.334,216.493 220.5,224.5C 218.167,224.5 215.833,224.5 213.5,224.5C 213.5,211.833 213.5,199.167 213.5,186.5C 216.572,186.183 219.572,186.516 222.5,187.5C 226.845,194.861 231.178,202.194 235.5,209.5 Z"/></g>
<g><path style="opacity:1" fill="#afaeb5" d="M 237.5,186.5 C 237.666,195.173 237.5,203.84 237,212.5C 236.487,211.473 235.987,210.473 235.5,209.5C 236.167,201.833 236.833,194.167 237.5,186.5 Z"/></g>
<g><path style="opacity:1" fill="#4b4e5b" d="M 283.5,187.5 C 275.5,187.5 267.5,187.5 259.5,187.5C 259.5,199.833 259.5,212.167 259.5,224.5C 258.505,212.011 258.171,199.344 258.5,186.5C 267.017,186.174 275.35,186.507 283.5,187.5 Z"/></g>
<g><path style="opacity:1" fill="#283141" d="M 283.5,187.5 C 283.5,189.5 283.5,191.5 283.5,193.5C 278.167,193.5 272.833,193.5 267.5,193.5C 267.5,196.167 267.5,198.833 267.5,201.5C 271.833,201.5 276.167,201.5 280.5,201.5C 280.5,203.833 280.5,206.167 280.5,208.5C 276.167,208.5 271.833,208.5 267.5,208.5C 267.5,211.5 267.5,214.5 267.5,217.5C 272.64,218.488 277.974,218.821 283.5,218.5C 283.5,220.5 283.5,222.5 283.5,224.5C 275.5,224.5 267.5,224.5 259.5,224.5C 259.5,212.167 259.5,199.833 259.5,187.5C 267.5,187.5 275.5,187.5 283.5,187.5 Z"/></g>
<g><path style="opacity:1" fill="#4d4f5c" d="M 316.5,187.5 C 310.5,187.5 304.5,187.5 298.5,187.5C 298.5,199.833 298.5,212.167 298.5,224.5C 297.505,212.011 297.171,199.344 297.5,186.5C 304.022,186.177 310.355,186.51 316.5,187.5 Z"/></g>
<g><path style="opacity:1" fill="#273040" d="M 316.5,187.5 C 325.683,190.88 327.85,196.88 323,205.5C 321.59,206.787 320.09,207.954 318.5,209C 321.7,214.037 324.7,219.204 327.5,224.5C 324.5,225.833 321.5,225.833 318.5,224.5C 316.421,220.007 314.088,215.674 311.5,211.5C 309.604,210.534 307.604,210.201 305.5,210.5C 305.5,215.167 305.5,219.833 305.5,224.5C 303.167,224.5 300.833,224.5 298.5,224.5C 298.5,212.167 298.5,199.833 298.5,187.5C 304.5,187.5 310.5,187.5 316.5,187.5 Z"/></g>
<g><path style="opacity:1" fill="#fafafa" d="M 60.5,193.5 C 63.1873,193.336 65.854,193.503 68.5,194C 72.4851,197.286 72.4851,200.619 68.5,204C 65.854,204.497 63.1873,204.664 60.5,204.5C 60.5,200.833 60.5,197.167 60.5,193.5 Z"/></g>
<g><path style="opacity:1" fill="#9f9ea6" d="M 148.5,193.5 C 146.167,193.5 143.833,193.5 141.5,193.5C 141.5,196.833 141.5,200.167 141.5,203.5C 143.833,203.5 146.167,203.5 148.5,203.5C 146.052,204.473 143.385,204.806 140.5,204.5C 140.5,200.5 140.5,196.5 140.5,192.5C 143.385,192.194 146.052,192.527 148.5,193.5 Z"/></g>
<g><path style="opacity:1" fill="#fdfcfd" d="M 148.5,193.5 C 151.332,195.407 152.166,198.073 151,201.5C 150.292,202.381 149.458,203.047 148.5,203.5C 146.167,203.5 143.833,203.5 141.5,203.5C 141.5,200.167 141.5,196.833 141.5,193.5C 143.833,193.5 146.167,193.5 148.5,193.5 Z"/></g>
<g><path style="opacity:1" fill="#a09fa7" d="M 313.5,193.5 C 311.167,193.5 308.833,193.5 306.5,193.5C 306.5,196.833 306.5,200.167 306.5,203.5C 308.833,203.5 311.167,203.5 313.5,203.5C 311.052,204.473 308.385,204.806 305.5,204.5C 305.5,200.5 305.5,196.5 305.5,192.5C 308.385,192.194 311.052,192.527 313.5,193.5 Z"/></g>
<g><path style="opacity:1" fill="#fdfdfd" d="M 313.5,193.5 C 315.95,193.874 316.95,195.374 316.5,198C 316.876,200.655 315.876,202.488 313.5,203.5C 311.167,203.5 308.833,203.5 306.5,203.5C 306.5,200.167 306.5,196.833 306.5,193.5C 308.833,193.5 311.167,193.5 313.5,193.5 Z"/></g>
<g><path style="opacity:1" fill="#afaeb5" d="M 169.5,193.5 C 169.833,193.5 170.167,193.5 170.5,193.5C 174.167,193.5 177.833,193.5 181.5,193.5C 181.5,203.833 181.5,214.167 181.5,224.5C 180.506,214.681 180.173,204.681 180.5,194.5C 176.629,194.815 172.962,194.482 169.5,193.5 Z"/></g>
<g><path style="opacity:1" fill="#efeff0" d="M 103.5,195.5 C 105.201,199.609 106.534,203.943 107.5,208.5C 104.914,209.48 102.247,209.813 99.5,209.5C 100.846,204.816 102.18,200.149 103.5,195.5 Z"/></g>
<g><path style="opacity:1" fill="#84858f" d="M 267.5,217.5 C 273.167,217.5 278.833,217.5 284.5,217.5C 284.802,220.059 284.468,222.393 283.5,224.5C 283.5,222.5 283.5,220.5 283.5,218.5C 277.974,218.821 272.64,218.488 267.5,217.5 Z"/></g>
<g><path style="opacity:1" fill="#787984" d="M 161.5,223.5 C 162.043,223.56 162.376,223.893 162.5,224.5C 159.355,225.803 156.355,225.803 153.5,224.5C 156.385,224.806 159.052,224.473 161.5,223.5 Z"/></g>
<g><path style="opacity:1" fill="#263040" d="M 252.5,233.5 C 253.5,233.5 254.5,233.5 255.5,233.5C 254.939,239.724 255.605,245.724 257.5,251.5C 255.994,252.747 254.494,252.747 253,251.5C 252.501,245.509 252.334,239.509 252.5,233.5 Z"/></g>
<g><path style="opacity:1" fill="#a4a4ac" d="M 269.5,234.5 C 270.568,233.566 271.901,233.232 273.5,233.5C 273.205,235.735 273.539,237.735 274.5,239.5C 274.44,240.043 274.107,240.376 273.5,240.5C 272.534,238.604 272.201,236.604 272.5,234.5C 271.5,234.5 270.5,234.5 269.5,234.5 Z"/></g>
<g><path style="opacity:1" fill="#363c4b" d="M 207.5,235.5 C 208.833,235.5 210.167,235.5 211.5,235.5C 211.5,237.833 211.5,240.167 211.5,242.5C 213.833,242.5 216.167,242.5 218.5,242.5C 218.5,240.167 218.5,237.833 218.5,235.5C 219.833,235.5 221.167,235.5 222.5,235.5C 222.5,241.167 222.5,246.833 222.5,252.5C 221.167,252.5 219.833,252.5 218.5,252.5C 218.5,250.167 218.5,247.833 218.5,245.5C 216.167,245.5 213.833,245.5 211.5,245.5C 211.5,247.833 211.5,250.167 211.5,252.5C 210.167,252.5 208.833,252.5 207.5,252.5C 207.5,246.833 207.5,241.167 207.5,235.5 Z"/></g>
<g><path style="opacity:1" fill="#323948" d="M 260.5,236.5 C 261.5,236.5 262.5,236.5 263.5,236.5C 263.5,237.5 263.5,238.5 263.5,239.5C 264.833,239.5 266.167,239.5 267.5,239.5C 267.5,240.5 267.5,241.5 267.5,242.5C 266.167,242.5 264.833,242.5 263.5,242.5C 263.337,244.857 263.503,247.19 264,249.5C 268.381,250.693 268.548,252.027 264.5,253.5C 262.971,253.471 261.804,252.804 261,251.5C 260.9,247.798 260.067,244.298 258.5,241C 259.707,239.7 260.374,238.2 260.5,236.5 Z"/></g>
<g><path style="opacity:1" fill="#3c4352" d="M 227.5,239.5 C 234.33,238 237.33,240.667 236.5,247.5C 233.753,247.187 231.086,247.52 228.5,248.5C 230.45,250.753 232.784,251.086 235.5,249.5C 236.739,251.007 236.405,252.174 234.5,253C 228.52,254.2 225.187,251.7 224.5,245.5C 224.984,243.199 225.984,241.199 227.5,239.5 Z"/></g>
<g><path style="opacity:1" fill="#383f4e" d="M 248.5,241.5 C 249.08,245.649 248.414,249.316 246.5,252.5C 240.556,254.719 238.056,252.719 239,246.5C 241.052,245.277 243.219,244.277 245.5,243.5C 243.167,242.833 240.833,242.167 238.5,241.5C 238.709,240.914 239.043,240.414 239.5,240C 242.167,239.333 244.833,239.333 247.5,240C 248.056,240.383 248.389,240.883 248.5,241.5 Z"/></g>
<g><path style="opacity:1" fill="#323948" d="M 269.5,234.5 C 270.5,234.5 271.5,234.5 272.5,234.5C 272.201,236.604 272.534,238.604 273.5,240.5C 274.107,240.376 274.44,240.043 274.5,239.5C 277.044,239.104 279.211,239.771 281,241.5C 281.499,245.152 281.665,248.818 281.5,252.5C 280.167,252.5 278.833,252.5 277.5,252.5C 277.5,249.167 277.5,245.833 277.5,242.5C 275.833,242.5 274.167,242.5 272.5,242.5C 272.5,245.833 272.5,249.167 272.5,252.5C 271.5,252.5 270.5,252.5 269.5,252.5C 269.5,246.5 269.5,240.5 269.5,234.5 Z"/></g>
<g><path style="opacity:1" fill="#3a414f" d="M 286.5,239.5 C 288.833,239.5 291.167,239.5 293.5,239.5C 293.5,240.5 293.5,241.5 293.5,242.5C 287.933,241.753 286.1,244.087 288,249.5C 289.825,250.103 291.659,250.77 293.5,251.5C 288.009,254.756 284.675,253.09 283.5,246.5C 283.695,243.782 284.695,241.449 286.5,239.5 Z"/></g>
<g><path style="opacity:1" fill="#393f4e" d="M 296.5,239.5 C 300.007,238.994 303.174,239.66 306,241.5C 306.499,245.152 306.665,248.818 306.5,252.5C 303.475,252.877 300.475,253.044 297.5,253C 295.604,251.192 295.104,249.025 296,246.5C 298.052,245.277 300.219,244.277 302.5,243.5C 300.604,242.534 298.604,242.201 296.5,242.5C 296.5,241.5 296.5,240.5 296.5,239.5 Z"/></g>
<g><path style="opacity:1" fill="#383f4e" d="M 321.5,239.5 C 327.833,238.5 330.5,241.167 329.5,247.5C 326.813,247.336 324.146,247.503 321.5,248C 323.393,250.557 325.727,251.057 328.5,249.5C 329.529,252.308 328.362,253.642 325,253.5C 319.144,252.131 317.144,248.464 319,242.5C 320.045,241.627 320.878,240.627 321.5,239.5 Z"/></g>
<g><path style="opacity:1" fill="#2b3443" d="M 309.5,239.5 C 312.167,240.833 314.833,240.833 317.5,239.5C 317.5,240.5 317.5,241.5 317.5,242.5C 315.856,242.286 314.356,242.62 313,243.5C 312.502,246.482 312.335,249.482 312.5,252.5C 311.5,252.5 310.5,252.5 309.5,252.5C 309.5,248.167 309.5,243.833 309.5,239.5 Z"/></g>
<g><path style="opacity:1" fill="#d9d9dc" d="M 229.5,241.5 C 231.346,241.222 232.68,241.889 233.5,243.5C 231.833,244.833 230.167,244.833 228.5,243.5C 228.863,242.817 229.196,242.15 229.5,241.5 Z"/></g>
<g><path style="opacity:1" fill="#83838d" d="M 248.5,241.5 C 249.483,245.298 249.817,249.298 249.5,253.5C 248.209,253.737 247.209,253.404 246.5,252.5C 248.414,249.316 249.08,245.649 248.5,241.5 Z"/></g>
<g><path style="opacity:1" fill="#e7e7e9" d="M 323.5,241.5 C 324.995,241.415 325.995,242.081 326.5,243.5C 324.926,244.631 323.259,244.798 321.5,244C 322.381,243.292 323.047,242.458 323.5,241.5 Z"/></g>
<g><path style="opacity:1" fill="#eeeef0" d="M 241.5,247.5 C 242.833,247.5 244.167,247.5 245.5,247.5C 245.5,248.5 245.5,249.5 245.5,250.5C 244.167,250.5 242.833,250.5 241.5,250.5C 241.5,249.5 241.5,248.5 241.5,247.5 Z"/></g>
<g><path style="opacity:1" fill="#e4e4e6" d="M 298.5,247.5 C 300.288,247.215 301.955,247.548 303.5,248.5C 302.332,250.217 300.665,250.884 298.5,250.5C 298.5,249.5 298.5,248.5 298.5,247.5 Z"/></g>
<g><path style="opacity:1" fill="#343b4a" d="M 230.5,259.5 C 232.527,259.338 234.527,259.505 236.5,260C 238.405,260.826 238.739,261.993 237.5,263.5C 234.784,261.914 232.45,262.247 230.5,264.5C 233.208,266.611 236.041,268.611 239,270.5C 240.271,274.166 239.104,276.666 235.5,278C 233.167,278.667 230.833,278.667 228.5,278C 227.483,276.951 227.316,275.784 228,274.5C 230.064,275.591 232.231,275.758 234.5,275C 235.022,274.439 235.355,273.772 235.5,273C 233.119,271.054 230.619,269.221 228,267.5C 226.837,264.029 227.67,261.362 230.5,259.5 Z"/></g>
<g><path style="opacity:1" fill="#3b4251" d="M 259.5,258.5 C 261.167,258.5 262.833,258.5 264.5,258.5C 264.5,259.5 264.5,260.5 264.5,261.5C 263.167,261.5 261.833,261.5 260.5,261.5C 260.5,262.5 260.5,263.5 260.5,264.5C 262.833,264.5 265.167,264.5 267.5,264.5C 267.5,263.167 267.5,261.833 267.5,260.5C 268.5,260.5 269.5,260.5 270.5,260.5C 270.5,261.833 270.5,263.167 270.5,264.5C 271.5,264.5 272.5,264.5 273.5,264.5C 273.5,265.5 273.5,266.5 273.5,267.5C 272.5,267.5 271.5,267.5 270.5,267.5C 270.5,270.167 270.5,272.833 270.5,275.5C 274.302,275.895 274.469,276.895 271,278.5C 269.527,278.097 268.194,277.43 267,276.5C 266.502,273.518 266.335,270.518 266.5,267.5C 264.5,267.5 262.5,267.5 260.5,267.5C 260.5,270.833 260.5,274.167 260.5,277.5C 259.5,277.5 258.5,277.5 257.5,277.5C 257.923,273.449 257.256,269.616 255.5,266C 256.909,263.471 258.242,260.971 259.5,258.5 Z"/></g>
<g><path style="opacity:1" fill="#343b4a" d="M 244.5,264.5 C 251.799,263.371 254.965,266.371 254,273.5C 250.421,279.753 246.421,280.086 242,274.5C 240.861,270.579 241.695,267.246 244.5,264.5 Z"/></g>
<g><path style="opacity:1" fill="#373e4d" d="M 295.5,264.5 C 299.007,263.994 302.174,264.66 305,266.5C 305.499,270.152 305.665,273.818 305.5,277.5C 302.475,277.877 299.475,278.044 296.5,278C 294.604,276.192 294.104,274.025 295,271.5C 297.355,270.192 299.855,269.192 302.5,268.5C 300.257,267.526 297.924,267.192 295.5,267.5C 295.5,266.5 295.5,265.5 295.5,264.5 Z"/></g>
<g><path style="opacity:1" fill="#3d4452" d="M 320.5,264.5 C 327.002,263.339 330.002,266.005 329.5,272.5C 319.235,272.447 318.902,273.78 328.5,276.5C 325.78,278.962 322.78,279.129 319.5,277C 316.709,272.578 317.043,268.412 320.5,264.5 Z"/></g>
<g><path style="opacity:1" fill="#39404f" d="M 274.5,264.5 C 275.833,264.5 277.167,264.5 278.5,264.5C 278.678,267.216 279.178,269.883 280,272.5C 282.667,261.833 285.333,261.833 288,272.5C 288.822,270.212 289.489,267.878 290,265.5C 291.011,264.663 292.178,264.33 293.5,264.5C 292.646,268.583 291.479,272.583 290,276.5C 288.644,277.38 287.144,277.714 285.5,277.5C 284.506,266.85 283.506,266.85 282.5,277.5C 280.856,277.714 279.356,277.38 278,276.5C 276.523,272.57 275.356,268.57 274.5,264.5 Z"/></g>
<g><path style="opacity:1" fill="#383f4e" d="M 308.5,264.5 C 311.167,265.833 313.833,265.833 316.5,264.5C 316.5,265.5 316.5,266.5 316.5,267.5C 315.167,267.5 313.833,267.5 312.5,267.5C 312.5,270.833 312.5,274.167 312.5,277.5C 311.167,277.5 309.833,277.5 308.5,277.5C 308.5,273.167 308.5,268.833 308.5,264.5 Z"/></g>
<g><path style="opacity:1" fill="#ededef" d="M 245.5,267.5 C 247.144,267.286 248.644,267.62 250,268.5C 250.758,270.769 250.591,272.936 249.5,275C 244.632,274.711 243.299,272.211 245.5,267.5 Z"/></g>
<g><path style="opacity:1" fill="#e5e5e7" d="M 322.5,266.5 C 327.965,269.225 327.632,269.892 321.5,268.5C 321.863,267.817 322.196,267.15 322.5,266.5 Z"/></g>
<g><path style="opacity:1" fill="#fcfcfc" d="M 298.5,272.5 C 299.978,272.238 301.311,272.571 302.5,273.5C 301.68,275.111 300.346,275.778 298.5,275.5C 298.5,274.5 298.5,273.5 298.5,272.5 Z"/></g>
<g><path style="opacity:1" fill="#3b4251" d="M 192.5,284.5 C 194.857,284.337 197.19,284.503 199.5,285C 200.337,286.011 200.67,287.178 200.5,288.5C 191.071,287.082 188.404,290.582 192.5,299C 195.146,299.497 197.813,299.664 200.5,299.5C 200.27,302.465 198.603,303.798 195.5,303.5C 187.845,301.879 185.345,297.212 188,289.5C 189.025,287.313 190.525,285.646 192.5,284.5 Z"/></g>
<g><path style="opacity:1" fill="#424856" d="M 269.5,285.5 C 270.5,285.5 271.5,285.5 272.5,285.5C 272.5,286.833 272.5,288.167 272.5,289.5C 273.5,289.5 274.5,289.5 275.5,289.5C 275.5,290.5 275.5,291.5 275.5,292.5C 274.5,292.5 273.5,292.5 272.5,292.5C 272.5,295.167 272.5,297.833 272.5,300.5C 276.302,300.895 276.469,301.895 273,303.5C 271.527,303.097 270.194,302.43 269,301.5C 268.687,297.343 267.853,293.343 266.5,289.5C 267.5,289.5 268.5,289.5 269.5,289.5C 269.5,288.167 269.5,286.833 269.5,285.5 Z"/></g>
<g><path style="opacity:1" fill="#343c4b" d="M 204.5,289.5 C 214.247,289.085 216.913,293.252 212.5,302C 206.317,304.841 202.65,302.841 201.5,296C 201.84,293.489 202.84,291.322 204.5,289.5 Z"/></g>
<g><path style="opacity:1" fill="#293242" d="M 217.5,289.5 C 223.469,289.769 229.469,289.935 235.5,290C 236.464,294.066 236.797,298.233 236.5,302.5C 235.5,302.5 234.5,302.5 233.5,302.5C 233.5,299.167 233.5,295.833 233.5,292.5C 231.833,292.5 230.167,292.5 228.5,292.5C 228.5,295.833 228.5,299.167 228.5,302.5C 227.5,302.5 226.5,302.5 225.5,302.5C 225.5,299.167 225.5,295.833 225.5,292.5C 223.833,292.5 222.167,292.5 220.5,292.5C 220.5,295.833 220.5,299.167 220.5,302.5C 219.5,302.5 218.5,302.5 217.5,302.5C 217.5,298.167 217.5,293.833 217.5,289.5 Z"/></g>
<g><path style="opacity:1" fill="#383f4e" d="M 243.5,302.5 C 242.549,303.919 242.216,305.585 242.5,307.5C 241.5,307.5 240.5,307.5 239.5,307.5C 239.5,301.5 239.5,295.5 239.5,289.5C 242.684,289.833 246.018,290 249.5,290C 253.769,294.709 253.436,299.042 248.5,303C 246.735,303.64 245.068,303.473 243.5,302.5 Z"/></g>
<g><path style="opacity:1" fill="#383f4e" d="M 257.5,289.5 C 263.833,288.5 266.5,291.167 265.5,297.5C 262.753,297.187 260.086,297.52 257.5,298.5C 259.45,300.753 261.784,301.086 264.5,299.5C 265.739,301.007 265.405,302.174 263.5,303C 255.668,303.821 252.835,300.321 255,292.5C 256.045,291.627 256.878,290.627 257.5,289.5 Z"/></g>
<g><path style="opacity:1" fill="#3a414f" d="M 280.5,289.5 C 286.833,288.5 289.5,291.167 288.5,297.5C 285.753,297.187 283.086,297.52 280.5,298.5C 282.45,300.753 284.784,301.086 287.5,299.5C 288.529,302.308 287.362,303.642 284,303.5C 277.851,302.306 275.851,298.639 278,292.5C 279.045,291.627 279.878,290.627 280.5,289.5 Z"/></g>
<g><path style="opacity:1" fill="#373e4d" d="M 308.5,289.5 C 317.03,289.86 317.364,291.194 309.5,293.5C 307.668,298.66 309.334,300.66 314.5,299.5C 315.731,300.651 315.731,301.817 314.5,303C 306.885,303.659 304.051,300.159 306,292.5C 307.045,291.627 307.878,290.627 308.5,289.5 Z"/></g>
<g><path style="opacity:1" fill="#26303f" d="M 302.5,291.5 C 302.823,295.226 302.489,298.893 301.5,302.5C 300.833,299.358 300.166,296.358 299.5,293.5C 298.081,292.549 296.415,292.216 294.5,292.5C 294.5,295.833 294.5,299.167 294.5,302.5C 293.5,302.5 292.5,302.5 291.5,302.5C 291.5,298.167 291.5,293.833 291.5,289.5C 294.684,289.833 298.018,290 301.5,290C 302.056,290.383 302.389,290.883 302.5,291.5 Z"/></g>
<g><path style="opacity:1" fill="#373e4d" d="M 316.5,289.5 C 317.822,289.33 318.989,289.663 320,290.5C 321.593,299.72 323.426,299.72 325.5,290.5C 326.325,289.614 327.325,289.281 328.5,289.5C 326.836,295.655 324.67,301.655 322,307.5C 320.301,308.406 318.467,308.739 316.5,308.5C 316.5,307.5 316.5,306.5 316.5,305.5C 318.948,305.915 320.281,304.915 320.5,302.5C 319.156,298.137 317.823,293.804 316.5,289.5 Z"/></g>
<g><path style="opacity:1" fill="#ededef" d="M 206.5,292.5 C 211.068,292.083 212.568,294.083 211,298.5C 209.604,300.527 207.938,300.86 206,299.5C 205.297,297.071 205.463,294.738 206.5,292.5 Z"/></g>
<g><path style="opacity:1" fill="#f6f6f7" d="M 243.5,292.5 C 246.93,291.755 248.597,293.089 248.5,296.5C 248.597,299.911 246.93,301.245 243.5,300.5C 243.5,297.833 243.5,295.167 243.5,292.5 Z"/></g>
<g><path style="opacity:1" fill="#e6e5e8" d="M 259.5,291.5 C 260.995,291.415 261.995,292.081 262.5,293.5C 260.926,294.631 259.259,294.798 257.5,294C 258.381,293.292 259.047,292.458 259.5,291.5 Z"/></g>
<g><path style="opacity:1" fill="#f8f8f9" d="M 281.5,292.5 C 282.978,292.238 284.311,292.571 285.5,293.5C 283.926,294.631 282.259,294.798 280.5,294C 281.056,293.617 281.389,293.117 281.5,292.5 Z"/></g>
<g><path style="opacity:1" fill="#61636f" d="M 302.5,291.5 C 303.483,295.298 303.817,299.298 303.5,303.5C 302.167,303.5 300.833,303.5 299.5,303.5C 299.5,300.167 299.5,296.833 299.5,293.5C 300.166,296.358 300.833,299.358 301.5,302.5C 302.489,298.893 302.823,295.226 302.5,291.5 Z"/></g>
<g><path style="opacity:1" fill="#a1a1a9" d="M 243.5,302.5 C 243.5,304.5 243.5,306.5 243.5,308.5C 241.901,308.768 240.568,308.434 239.5,307.5C 240.5,307.5 241.5,307.5 242.5,307.5C 242.216,305.585 242.549,303.919 243.5,302.5 Z"/></g>

</svg>
