<?xml version="1.0" encoding="utf-8"?>
<!-- Generator: Adobe Illustrator 28.0.0, SVG Export Plug-In . SVG Version: 6.00 Build 0)  -->
<svg version="1.1" id="Layer_1" xmlns="http://www.w3.org/2000/svg" xmlns:xlink="http://www.w3.org/1999/xlink" x="0px" y="0px"
	 viewBox="0 0 48 48" style="enable-background:new 0 0 48 48;" xml:space="preserve">
<style type="text/css">
	.st0{fill:#24335F;stroke:#24335F;stroke-width:0.1;stroke-miterlimit:10;}
	.st1{fill:none;stroke:#FFFFFF;stroke-miterlimit:10;}
	.st2{fill:#FFFFFF;stroke:#FFFFFF;stroke-miterlimit:10;}
	.st3{fill:none;stroke:#FFFFFF;stroke-width:0.9605;stroke-miterlimit:10;}
	.st4{fill:#24335F;stroke:#FFFFFF;stroke-width:0.9705;stroke-miterlimit:10;}
	.st5{fill:#24335F;stroke:#FFFFFF;stroke-width:0.9242;stroke-miterlimit:10;}
	.st6{fill:#24335F;stroke:#FFFFFF;stroke-width:0.7717;stroke-miterlimit:10;}
</style>
<circle class="st0" cx="24" cy="24" r="24"/>
<path class="st1" d="M39.12,17.06H9.09c-0.08,0-0.14,0.06-0.14,0.14v20.44c0,0.08,0.06,0.14,0.14,0.14h30.03
	c0.08,0,0.15-0.06,0.15-0.14V17.2C39.27,17.12,39.2,17.06,39.12,17.06z"/>
<path class="st1" d="M23.51,21.54c-3.36,0-6.08,2.72-6.08,6.08s2.72,6.08,6.08,6.08s6.08-2.72,6.08-6.08S26.87,21.54,23.51,21.54z"
	/>
<path class="st2" d="M26.81,26.27v2.7c0,0.04-0.03,0.08-0.08,0.08h-1.64c-0.08,0-0.15,0.07-0.15,0.15v1.47
	c0,0.14-0.11,0.25-0.25,0.25h-2.35c-0.14,0-0.26-0.12-0.26-0.26V29.4c0-0.2-0.16-0.36-0.36-0.36h-1.43c-0.05,0-0.08-0.04-0.08-0.08
	v-2.7c0-0.04,0.03-0.08,0.08-0.08h1.39c0.11,0,0.21-0.04,0.28-0.12c0.07-0.07,0.12-0.17,0.12-0.28v-1.22c0-0.14,0.11-0.25,0.25-0.25
	h2.35c0.14,0,0.26,0.12,0.26,0.26v1.24c0,0.21,0.17,0.37,0.37,0.37h1.42C26.78,26.19,26.81,26.23,26.81,26.27z"/>
<path class="st3" d="M36.83,35.62H11.38c-0.16,0-0.29-0.13-0.29-0.29V17.7c0-0.16,0.13-0.29,0.29-0.29h25.46
	c0.16,0,0.29,0.13,0.29,0.29v17.63C37.13,35.49,37,35.62,36.83,35.62z"/>
<line class="st3" x1="8.95" y1="33.7" x2="11.09" y2="33.7"/>
<line class="st3" x1="12.77" y1="35.62" x2="12.77" y2="37.78"/>
<line class="st3" x1="37.45" y1="33.7" x2="39.27" y2="33.7"/>
<line class="st3" x1="35.85" y1="35.62" x2="35.85" y2="37.43"/>
<path class="st4" d="M40.44,15.48v1c0,0.36,0.04,0.94-0.17,1.19c-0.26,0.3-0.82,0.22-1.24,0.22H9.19c-0.42,0-0.96,0.07-1.22-0.22
	c-0.22-0.25-0.19-0.83-0.19-1.19v-1c0-0.78,0.64-1.41,1.41-1.41h29.84C39.8,14.07,40.44,14.7,40.44,15.48z"/>
<path class="st1" d="M32.8,12.05v1.42c0,0.21-0.03,0.41-0.07,0.6h-17.1c-0.05-0.19-0.08-0.39-0.08-0.6v-1.42
	c0-1.37,1.13-2.5,2.51-2.5h12.23C31.67,9.55,32.8,10.68,32.8,12.05z"/>
<path class="st1" d="M31.14,12.28v1.79H17.21v-1.79c0-0.66,0.54-1.2,1.2-1.2h11.53C30.6,11.08,31.14,11.62,31.14,12.28z"/>
<g>
	<path class="st5" d="M18.11,19.35h-3.92c-0.23,0-0.42-0.19-0.42-0.42v-2.54c0-0.23,0.19-0.42,0.42-0.42h3.92
		c0.23,0,0.42,0.19,0.42,0.42v2.54C18.53,19.16,18.34,19.35,18.11,19.35z"/>
	<path class="st6" d="M17.26,20.9h-2.22c-0.12,0-0.21-0.09-0.21-0.21v-1.13c0-0.12,0.09-0.21,0.21-0.21h2.22
		c0.12,0,0.21,0.09,0.21,0.21v1.13C17.47,20.81,17.38,20.9,17.26,20.9z"/>
</g>
<g>
	<path class="st5" d="M34.34,19.35h-3.92c-0.23,0-0.42-0.19-0.42-0.42V16.4c0-0.23,0.19-0.42,0.42-0.42h3.92
		c0.23,0,0.42,0.19,0.42,0.42v2.54C34.76,19.17,34.57,19.35,34.34,19.35z"/>
	<path class="st6" d="M33.49,20.9h-2.22c-0.12,0-0.21-0.09-0.21-0.21v-1.13c0-0.12,0.09-0.21,0.21-0.21h2.22
		c0.12,0,0.21,0.09,0.21,0.21v1.13C33.7,20.81,33.61,20.9,33.49,20.9z"/>
</g>
</svg>
