<?xml version="1.0" encoding="utf-8"?>
<!-- Generator: Adobe Illustrator 28.0.0, SVG Export Plug-In . SVG Version: 6.00 Build 0)  -->
<svg version="1.1" id="Layer_1" xmlns="http://www.w3.org/2000/svg" xmlns:xlink="http://www.w3.org/1999/xlink" x="0px" y="0px"
	 viewBox="0 0 512 512" style="enable-background:new 0 0 512 512;" xml:space="preserve">
<style type="text/css">
	.st0{fill:#24335F;stroke:#24335F;stroke-miterlimit:10;}
	.st1{fill:none;stroke:#FFFFFF;stroke-width:18;stroke-miterlimit:10;}
	.st2{fill:#24335F;stroke:#FFFFFF;stroke-width:18;stroke-miterlimit:10;}
	.st3{fill:none;stroke:#000000;stroke-miterlimit:10;}
</style>
<circle class="st0" cx="256" cy="256" r="256"/>
<path class="st1" d="M257.95,327.59c-0.28,7.79-0.42,15.93-0.47,23.78c-0.01,0.98,0.05,2.41,0.16,4.26
	c1.2,16.69-2.8,38.69,7.2,46.69c2,1.33,4.25,2.25,6.7,2.84c0.08,0.02,0.97-0.04,3.11-0.25c35.19-1.59,65.19-12.59,92.28-34.9
	c2.79-2.51,5.49-5.1,8.1-7.79c28.7-29.57,46.37-69.91,46.37-114.37c0-69.48-43.78-129.63-108.34-152.38
	c-19.71-6.94-47.78-9.05-68.99-8.58c-35.44,0.78-88.76,29.55-80.22,25.4 M136.83,136.34c1.77-1.7-1.09,1.17-3.6,3.77
	c-26.56,27.49-40.28,66.52-40.28,107.74c0,71.5,45.69,132.34,109.48,154.88c0.08,0.03,0.16,0.06,0.24,0.08 M282.68,163.14
	C283.52,163.14,281.84,163.15,282.68,163.14c7.87-0.05,18.26-0.14,26.14-0.24c5.53,0,8.85,0,8.85,0c6.6,0,12,5.4,12,12v86.84
	c0,1.5-0.06,3-0.17,4.48c-2.5,34.28-33.58,61.37-71.55,61.37c-37.95,0-69.03-27.08-71.54-61.35c-0.11-1.49-0.17-2.99-0.17-4.5V174.9
	c0-6.6,5.4-12,12-12c0,0,3.32,0,8.85,0c8.13,0.1,16.28,0.18,24.44,0.23c2.16,0.01,5.28,0.03,7.45,0.04c0.48,0-0.48,0,0,0"/>
<path class="st1" d="M186.24,261.74c0,1.51,0.06,3.01,0.17,4.5c-0.11-0.65-0.17-1.31-0.17-1.99V261.74z"/>
<path class="st1" d="M329.67,261.74v2.51c0,0.67-0.06,1.33-0.17,1.97C329.61,264.74,329.67,263.24,329.67,261.74z"/>
<ellipse class="st2" cx="167.56" cy="386.69" rx="40.9" ry="39.16"/>
<path class="st3" d="M256.84,166.13"/>
<path class="st3" d="M164.92,111.98"/>
</svg>
