<?xml version="1.0" encoding="utf-8"?>
<!-- Generator: Adobe Illustrator 28.0.0, SVG Export Plug-In . SVG Version: 6.00 Build 0)  -->
<svg version="1.1" id="Layer_1" xmlns="http://www.w3.org/2000/svg" xmlns:xlink="http://www.w3.org/1999/xlink" x="0px" y="0px"
	 viewBox="0 0 48 48" style="enable-background:new 0 0 48 48;" xml:space="preserve">
<style type="text/css">
	.st0{fill:#24335F;stroke:#24335F;stroke-width:0.1;stroke-miterlimit:10;}
	.st1{fill:#24335F;stroke:#FFFFFF;stroke-miterlimit:10;}
	.st2{fill:#FFFFFF;stroke:#FFFFFF;stroke-miterlimit:10;}
	.st3{fill:none;stroke:#24335F;stroke-width:1.8;stroke-miterlimit:10;}
</style>
<circle class="st0" cx="24" cy="24" r="24"/>
<path class="st1" d="M29.67,29.46c0,0.6-0.59,1.05-1.31,1.05c-0.68,0-1.27-0.45-1.27-1.05c0-0.6,0.59-1.05,1.27-1.05
	C29.08,28.42,29.67,28.87,29.67,29.46z"/>
<path class="st1" d="M14.03,35.93l8.5,0.04h-8.5c-0.14,0-0.27,0-0.41-0.07C13.76,35.93,13.9,35.93,14.03,35.93z"/>
<path class="st1" d="M36,25.43v1.98h-2.85v-2.5c0-0.63-0.9-1.12-2.03-1.12l-8.5-0.04h11.34C35.1,23.75,36,24.5,36,25.43z"/>
<path class="st1" d="M36,31.56v2.73c0,0.93-0.9,1.68-2.03,1.68h-2.53c0.95-0.07,1.63-0.52,1.63-1.05l0.05-3.36H36z"/>
<path class="st1" d="M29.67,29.46c0,0.6-0.59,1.05-1.31,1.05c-0.68,0-1.27-0.45-1.27-1.05c0-0.6,0.59-1.05,1.27-1.05
	C29.08,28.42,29.67,28.87,29.67,29.46z"/>
<path class="st1" d="M25.33,29.46c0,1.16,1.13,2.09,2.53,2.09h5.24l-0.05,3.36c0,0.52-0.68,0.97-1.63,1.05h-8.9l-8.5-0.04h-0.18
	c-0.09,0-0.14,0-0.23-0.04C12.68,35.78,12,35.1,12,34.28v-8.85c0-0.11,0-0.22,0.09-0.34c0.14-0.78,0.95-1.34,1.94-1.34h8.59
	l8.5,0.04c1.13,0,2.03,0.49,2.03,1.12v2.5h-5.29C26.46,27.41,25.33,28.34,25.33,29.46z"/>
<path class="st1" d="M13.63,35.89C12.68,35.78,12,35.33,12,34.8v-0.52C12,35.1,12.68,35.78,13.63,35.89z"/>
<path class="st1" d="M22.62,23.75h-8.59c-0.99,0-1.81,0.56-1.94,1.34v-0.3c0-0.6,0.9-1.08,2.03-1.08L22.62,23.75z"/>
<path class="st1" d="M22.53,35.96h8.9C31.3,36,31.16,36,31.03,36L22.53,35.96z"/>
<path class="st1" d="M29.67,29.46c0,0.6-0.59,1.05-1.31,1.05c-0.68,0-1.27-0.45-1.27-1.05c0-0.6,0.59-1.05,1.27-1.05
	C29.08,28.42,29.67,28.87,29.67,29.46z"/>
<path class="st1" d="M27.86,27.41c-1.4,0-2.53,0.93-2.53,2.05c0,1.16,1.13,2.09,2.53,2.09H36v-4.15H27.86z M28.36,30.51
	c-0.68,0-1.27-0.45-1.27-1.05c0-0.6,0.59-1.05,1.27-1.05c0.72,0,1.31,0.45,1.31,1.05C29.67,30.06,29.08,30.51,28.36,30.51z"/>
<path class="st1" d="M29.67,29.46c0,0.6-0.59,1.05-1.31,1.05c-0.68,0-1.27-0.45-1.27-1.05c0-0.6,0.59-1.05,1.27-1.05
	C29.08,28.42,29.67,28.87,29.67,29.46z"/>
<path class="st2" d="M29.67,29.46c0,0.6-0.59,1.05-1.31,1.05c-0.68,0-1.27-0.45-1.27-1.05c0-0.6,0.59-1.05,1.27-1.05
	C29.08,28.42,29.67,28.87,29.67,29.46z"/>
<ellipse class="st1" cx="22.88" cy="21.07" rx="3.27" ry="2.7"/>
<ellipse class="st1" cx="29.3" cy="15.79" rx="3.15" ry="2.6"/>
<line class="st1" x1="24.45" y1="12" x2="24.45" y2="17.46"/>
<line class="st1" x1="22.53" y1="13.55" x2="22.53" y2="17.46"/>
<line class="st3" x1="10.44" y1="32.93" x2="10.78" y2="36.47"/>
</svg>
