<?xml version="1.0" encoding="utf-8"?>
<!-- Generator: Adobe Illustrator 28.0.0, SVG Export Plug-In . SVG Version: 6.00 Build 0)  -->
<svg version="1.1" id="Layer_1" xmlns="http://www.w3.org/2000/svg" xmlns:xlink="http://www.w3.org/1999/xlink" x="0px" y="0px"
	 viewBox="0 0 48 48" style="enable-background:new 0 0 48 48;" xml:space="preserve">
<style type="text/css">
	.st0{fill:#23345F;stroke:#23345F;stroke-miterlimit:10;}
	.st1{fill:#23345F;stroke:#FFFFFF;stroke-width:1.0978;stroke-miterlimit:10;}
</style>
<circle class="st0" cx="24" cy="24" r="23.62"/>
<g>
	<path class="st1" d="M12.15,12h23.7c0.08,0,0.15,0.07,0.15,0.15v23.7c0,0.08-0.07,0.15-0.15,0.15h-23.7C12.07,36,12,35.93,12,35.85
		v-23.7C12,12.07,12.07,12,12.15,12z"/>
	<path class="st1" d="M23.88,21.15L12.95,35.76c-0.08,0.1,0,0.24,0.12,0.24h21.87c0.13,0,0.2-0.14,0.12-0.24L24.12,21.15
		C24.06,21.07,23.94,21.07,23.88,21.15z"/>
	<path class="st1" d="M24.12,27.04l10.93-14.8c0.07-0.1,0-0.24-0.12-0.24H13.07c-0.12,0-0.2,0.14-0.12,0.24l10.93,14.8
		C23.94,27.12,24.06,27.12,24.12,27.04z"/>
</g>
</svg>
