<?xml version="1.0" encoding="utf-8"?>
<!-- Generator: Adobe Illustrator 28.0.0, SVG Export Plug-In . SVG Version: 6.00 Build 0)  -->
<svg version="1.1" id="Layer_1" xmlns="http://www.w3.org/2000/svg" xmlns:xlink="http://www.w3.org/1999/xlink" x="0px" y="0px"
	 viewBox="0 0 16 16" style="enable-background:new 0 0 16 16;" xml:space="preserve">
<style type="text/css">
	.st0{fill:none;stroke:#000000;stroke-width:0.1;stroke-miterlimit:10;}
</style>
<g>
	<path class="st0" d="M8.44,8.49C8.46,8.52,8.47,8.56,8.47,8.6v0.59c0,0.17-0.12,0.31-0.27,0.34C8.16,9.54,8.14,9.54,8.11,9.54H7.95
		c-0.03,0-0.05,0-0.08-0.01C7.72,9.5,7.6,9.36,7.6,9.19V8.6c0-0.04,0.01-0.08,0.02-0.11C7.36,8.33,7.18,8.03,7.18,7.68
		c0-0.52,0.39-0.94,0.86-0.94s0.87,0.42,0.87,0.94C8.91,8.03,8.72,8.34,8.44,8.49z"/>
	<path class="st0" d="M8.19,9.53v0.15c0,0.04-0.03,0.06-0.06,0.06H7.94c-0.04,0-0.06-0.03-0.06-0.06V9.53
		C7.9,9.54,7.93,9.54,7.95,9.54h0.16C8.14,9.54,8.16,9.54,8.19,9.53z"/>
	<line class="st0" x1="7.62" y1="8.49" x2="8.44" y2="8.49"/>
	<line class="st0" x1="7.62" y1="8.79" x2="8.47" y2="8.79"/>
	<line class="st0" x1="7.62" y1="9.11" x2="8.44" y2="9.12"/>
	<line class="st0" x1="7.65" y1="9.37" x2="8.41" y2="9.38"/>
	<line class="st0" x1="8.03" y1="7.97" x2="8.03" y2="8.47"/>
	<line class="st0" x1="7.72" y1="7.54" x2="8.03" y2="7.97"/>
	<line class="st0" x1="8.37" y1="7.55" x2="8.04" y2="7.97"/>
	<line class="st0" x1="6.52" y1="6.37" x2="7.07" y2="6.87"/>
	<line class="st0" x1="6.1" y1="7.52" x2="6.82" y2="7.68"/>
	<line class="st0" x1="9.28" y1="7.67" x2="10.02" y2="7.67"/>
	<line class="st0" x1="9.63" y1="6.37" x2="9.02" y2="6.79"/>
	<line class="st0" x1="8.02" y1="5.79" x2="8.04" y2="6.53"/>
</g>
</svg>
