<?xml version="1.0" encoding="utf-8"?>
<!-- Generator: Adobe Illustrator 28.0.0, SVG Export Plug-In . SVG Version: 6.00 Build 0)  -->
<svg version="1.1" id="Layer_1" xmlns="http://www.w3.org/2000/svg" xmlns:xlink="http://www.w3.org/1999/xlink" x="0px" y="0px"
	 viewBox="0 0 48 48" style="enable-background:new 0 0 48 48;" xml:space="preserve">
<style type="text/css">
	.st0{fill:#FFFFFF;stroke:#000000;stroke-miterlimit:10;}
	.st1{fill:none;stroke:#000000;stroke-miterlimit:10;}
	.st2{fill:#24335F;stroke:#24335F;stroke-width:0.1;stroke-miterlimit:10;}
	.st3{fill:#FFFFFF;stroke:#FFFFFF;stroke-miterlimit:10;}
	.st4{fill:none;stroke:#FFFFFF;stroke-miterlimit:10;}
</style>
<g>
	<g>
		<ellipse class="st0" cx="24" cy="18.56" rx="7.49" ry="6.56"/>
		<line class="st1" x1="28.31" y1="31.67" x2="32.46" y2="31.72"/>
		<path class="st1" d="M21.23,29.66c0,0,1.23-1.83,1.94-2.89c0.57,0,1.34,0,1.89,0c0.59,1.07,1.65,3.01,1.65,3.01"/>
	</g>
	<circle class="st2" cx="24.07" cy="24.01" r="24"/>
	<g>
		<ellipse class="st3" cx="24.11" cy="18.45" rx="7.49" ry="6.56"/>
		<path class="st4" d="M12.17,35.88c-0.04-0.34-0.06-0.69-0.06-1.04c0-4.13,2.71-7.71,6.66-9.43c1.61-0.7,3.42,8.69,5.34,8.69
			c1.92,0,3.73-9.39,5.33-8.69c3.95,1.72,6.67,5.3,6.67,9.43c0,0.24,0.02,0.92,0,1.16c-0.01,0.08-0.04-0.29-0.05-0.21"/>
		<line class="st4" x1="28.42" y1="31.55" x2="32.57" y2="31.6"/>
		<path class="st4" d="M21.34,29.54c0,0,1.23-1.83,1.94-2.89c0.57,0,1.34,0,1.89,0c0.59,1.07,1.65,3.01,1.65,3.01"/>
	</g>
	<path class="st4" d="M17.19,26.29c0.47-0.28,0.96-0.54,1.47-0.76c1.61-0.7,3.42,8.69,5.34,8.69c1.92,0,3.73-9.39,5.33-8.69
		c3.95,1.72,6.67,4.75,6.67,8.88c0,0.18,0,1.18-0.01,1.59c-4.61,0-19.42,0-23.93,0C12.02,35.66,12,35.31,12,34.96
		C12,31.36,14.06,28.19,17.19,26.29z"/>
</g>
<path class="st4" d="M36.4,36c-0.23,0-0.4,0-0.4,0s0.16,0,0.36,0"/>
<path class="st4" d="M35.99,36.15c0,0,0,0.13,0,0.32"/>
</svg>
