<?xml version="1.0" encoding="utf-8"?>
<!-- Generator: Adobe Illustrator 28.0.0, SVG Export Plug-In . SVG Version: 6.00 Build 0)  -->
<svg version="1.1" id="Layer_1" xmlns="http://www.w3.org/2000/svg" xmlns:xlink="http://www.w3.org/1999/xlink" x="0px" y="0px"
	 viewBox="0 0 16 16" style="enable-background:new 0 0 16 16;" xml:space="preserve">
<style type="text/css">
	.st0{fill:#FFFFFF;stroke:#000000;stroke-width:0.1;stroke-miterlimit:10;}
	.st1{fill:none;stroke:#000000;stroke-width:0.1;stroke-miterlimit:10;}
</style>
<g>
	<ellipse class="st0" cx="8.06" cy="7.06" rx="0.93" ry="0.91"/>
	<path class="st1" d="M6.58,9.48c0-0.05-0.01-0.1-0.01-0.14c0-0.57,0.34-1.07,0.82-1.31c0.2-0.1,0.42,1.21,0.66,1.21
		c0.24,0,0.46-1.3,0.66-1.21c0.49,0.24,0.82,0.74,0.82,1.31c0,0.04,0,0.09-0.01,0.13"/>
	<line class="st1" x1="8.59" y1="8.88" x2="9.1" y2="8.89"/>
	<path class="st1" d="M7.71,8.6c0,0,0.15-0.25,0.24-0.4c0.07,0,0.17,0,0.23,0c0.07,0.15,0.2,0.42,0.2,0.42"/>
</g>
</svg>
